<?xml version="1.0" encoding="UTF-8"?>
<svg xmlns="http://www.w3.org/2000/svg" xmlns:xlink="http://www.w3.org/1999/xlink" width="30px" height="20px" viewBox="0 0 30 20" version="1.1">
<g id="surface1">
<rect x="0" y="0" width="30" height="20" style="fill:rgb(1.176471%,18.039216%,63.137255%);fill-opacity:1;stroke:none;"/>
<path style=" stroke:none;fill-rule:nonzero;fill:rgb(87.843137%,0%,14.509804%);fill-opacity:1;" d="M 0 5 L 30 5 L 30 15 L 0 15 Z M 0 5 "/>
<path style="fill-rule:nonzero;fill:rgb(100%,100%,100%);fill-opacity:1;stroke-width:0.96;stroke-linecap:butt;stroke-linejoin:bevel;stroke:rgb(0%,0%,0%);stroke-opacity:1;stroke-miterlimit:4;" d="M 139.027144 623.473429 L 252.788754 623.473429 L 252.788754 667.233938 L 139.027144 667.233938 Z M 139.027144 623.473429 " transform="matrix(0.0497202,0,0,0.0497202,5.286761,-21.620317)"/>
<path style="fill-rule:nonzero;fill:rgb(100%,100%,100%);fill-opacity:1;stroke-width:0.96;stroke-linecap:butt;stroke-linejoin:bevel;stroke:rgb(0%,0%,0%);stroke-opacity:1;stroke-miterlimit:4;" d="M 246.97497 647.67134 L 250.510379 647.67134 L 250.510379 664.169917 L 246.97497 664.169917 Z M 139.027144 639.500617 L 252.788754 639.500617 L 252.788754 644.607319 L 139.027144 644.607319 Z M 139.027144 632.586928 L 252.788754 632.586928 L 252.788754 637.065113 L 139.027144 637.065113 Z M 139.027144 632.586928 " transform="matrix(0.0497202,0,0,0.0497202,5.286761,-21.620317)"/>
<path style="fill-rule:nonzero;fill:rgb(100%,100%,100%);fill-opacity:1;stroke-width:0.945;stroke-linecap:butt;stroke-linejoin:bevel;stroke:rgb(0%,0%,0%);stroke-opacity:1;stroke-miterlimit:4;" d="M 139.027144 625.673239 L 252.788754 625.673239 L 252.788754 630.072859 L 139.027144 630.072859 Z M 139.027144 625.673239 " transform="matrix(0.0497202,0,0,0.0497202,5.286761,-21.620317)"/>
<path style="fill-rule:nonzero;fill:rgb(100%,100%,100%);fill-opacity:1;stroke-width:0.96;stroke-linecap:butt;stroke-linejoin:bevel;stroke:rgb(0%,0%,0%);stroke-opacity:1;stroke-miterlimit:4;" d="M 168.960275 647.67134 L 172.574249 647.67134 L 172.574249 664.169917 L 168.960275 664.169917 Z M 217.984615 647.67134 L 221.520024 647.67134 L 221.520024 664.169917 L 217.984615 664.169917 Z M 139.891355 647.67134 L 143.505329 647.67134 L 143.505329 664.169917 L 139.891355 664.169917 Z M 146.962174 647.67134 L 150.497583 647.67134 L 150.497583 664.169917 L 146.962174 664.169917 Z M 154.425815 647.67134 L 158.039789 647.67134 L 158.039789 664.169917 L 154.425815 664.169917 Z M 161.968021 647.67134 L 165.503431 647.67134 L 165.503431 664.169917 L 161.968021 664.169917 Z M 224.741175 647.67134 L 228.355149 647.67134 L 228.355149 664.169917 L 224.741175 664.169917 Z M 232.283381 647.67134 L 235.81879 647.67134 L 235.81879 664.169917 L 232.283381 664.169917 Z M 239.747023 647.67134 L 243.360996 647.67134 L 243.360996 664.169917 L 239.747023 664.169917 Z M 239.747023 647.67134 " transform="matrix(0.0497202,0,0,0.0497202,5.286761,-21.620317)"/>
<path style="fill-rule:nonzero;fill:rgb(100%,100%,100%);fill-opacity:1;stroke-width:0.96;stroke-linecap:butt;stroke-linejoin:miter;stroke:rgb(0%,0%,0%);stroke-opacity:1;stroke-miterlimit:4;" d="M 94.480989 669.512313 C 96.287976 668.648101 98.252092 666.526856 98.959174 664.248481 L 291.992513 664.248481 C 292.699595 666.526856 294.663711 668.648101 296.392134 669.512313 Z M 94.480989 669.512313 " transform="matrix(0.0497202,0,0,0.0497202,5.286761,-21.620317)"/>
<path style="fill-rule:nonzero;fill:rgb(100%,100%,100%);fill-opacity:1;stroke-width:0.96;stroke-linecap:butt;stroke-linejoin:miter;stroke:rgb(0%,0%,0%);stroke-opacity:1;stroke-miterlimit:4;" d="M 193.001057 556.772043 C 193.001057 556.772043 192.843928 552.686681 195.279432 552.608117 C 197.636371 552.686681 197.479242 556.772043 197.479242 556.772043 Z M 180.509278 611.374473 L 180.509278 605.796383 C 180.430714 603.046621 177.759516 602.810927 177.680951 600.84681 C 177.680951 600.84681 177.288128 597.782789 178.152339 596.44719 C 179.173679 600.453987 181.21636 599.746905 181.21636 598.018483 C 181.21636 596.604319 180.03789 595.26872 177.759516 591.733311 C 177.052434 590.554842 177.523822 587.097997 178.545162 585.762398 C 178.937985 588.904984 179.409373 590.319148 180.666408 590.319148 C 181.530619 590.319148 182.159136 589.84776 182.159136 588.276467 C 182.159136 586.312351 180.823537 585.29101 180.19502 583.562588 C 179.409373 581.441342 179.959326 579.320097 181.21636 578.141627 C 181.766313 581.205648 181.609183 582.384118 182.944782 582.384118 C 185.61598 581.519907 182.944782 577.591675 182.316265 576.648899 C 181.687748 575.470429 183.259041 573.192054 183.259041 573.192054 C 184.123252 575.863252 184.358946 576.098946 185.301722 575.863252 C 186.480191 575.548994 186.323062 573.742007 184.908899 572.327843 C 183.966123 571.463632 184.123252 570.128033 185.066028 569.106693 C 186.008804 570.992244 187.265838 570.91368 187.422967 569.73521 L 186.637321 565.33559 L 203.842979 565.33559 L 203.057332 569.578081 C 202.743074 570.835115 204.392931 571.070809 205.414272 569.106693 C 206.435612 570.128033 206.514177 571.463632 205.571401 572.406408 C 204.157237 573.742007 204.000108 575.548994 205.178578 575.863252 C 206.121353 576.098946 206.435612 575.863252 207.299823 573.192054 C 207.299823 573.192054 208.635422 574.763347 208.164034 576.648899 C 207.614082 577.591675 204.864319 581.519907 207.614082 582.384118 C 208.949681 582.384118 208.792551 581.205648 209.342504 578.141627 C 210.599538 579.320097 211.070926 581.441342 210.363844 583.562588 C 209.656763 585.369575 208.321164 586.312351 208.321164 588.276467 C 208.321164 589.84776 209.028245 590.319148 209.813892 590.319148 C 211.149491 590.319148 211.620879 588.904984 212.013702 585.762398 C 213.035042 587.097997 213.50643 590.554842 212.720784 591.733311 C 210.442409 595.26872 209.342504 596.604319 209.342504 598.018483 C 209.342504 599.746905 211.30662 600.453987 212.406525 596.44719 C 213.192172 597.782789 212.799348 600.84681 212.799348 600.84681 C 212.720784 602.810927 210.049586 603.046621 209.971021 605.796383 L 209.971021 611.374473 Z M 187.737226 565.33559 L 187.344403 562.193004 L 203.135897 562.193004 L 202.743074 565.33559 Z M 188.758566 562.114439 L 188.444308 559.521806 L 202.035992 559.521806 L 201.721733 562.114439 Z M 190.958376 559.443241 L 190.722682 556.929172 L 199.757617 556.929172 L 199.521923 559.443241 Z M 223.955528 669.512313 C 221.912848 668.805231 219.005956 666.605421 219.005956 664.484175 L 219.005956 640.207699 L 221.598589 636.829419 L 168.88171 636.829419 L 171.395779 640.207699 L 171.395779 664.484175 C 171.395779 666.605421 169.353098 668.805231 167.310417 669.512313 Z M 223.955528 669.512313 " transform="matrix(0.0497202,0,0,0.0497202,5.286761,-21.620317)"/>
<path style="fill-rule:nonzero;fill:rgb(100%,100%,100%);fill-opacity:1;stroke-width:0.96;stroke-linecap:butt;stroke-linejoin:bevel;stroke:rgb(0%,0%,0%);stroke-opacity:1;stroke-miterlimit:4;" d="M 178.230903 647.67134 L 181.844877 647.67134 L 181.844877 664.169917 L 178.230903 664.169917 Z M 208.556858 647.67134 L 212.170831 647.67134 L 212.170831 664.169917 L 208.556858 664.169917 Z M 208.556858 647.67134 " transform="matrix(0.0497202,0,0,0.0497202,5.286761,-21.620317)"/>
<path style="fill-rule:nonzero;fill:rgb(100%,100%,100%);fill-opacity:1;stroke-width:0.96;stroke-linecap:butt;stroke-linejoin:miter;stroke:rgb(0%,0%,0%);stroke-opacity:1;stroke-miterlimit:4;" d="M 167.938935 609.174663 L 167.938935 636.829419 L 221.912848 636.829419 L 221.912848 630.858506 L 221.991412 609.174663 C 219.791602 610.038874 219.398779 612.00299 219.398779 612.00299 L 219.398779 623.787688 L 170.688697 623.787688 L 170.688697 612.00299 C 170.688697 612.00299 170.138745 610.038874 167.938935 609.174663 Z M 167.938935 609.174663 " transform="matrix(0.0497202,0,0,0.0497202,5.286761,-21.620317)"/>
<path style="fill-rule:nonzero;fill:rgb(100%,100%,100%);fill-opacity:1;stroke-width:0.96;stroke-linecap:butt;stroke-linejoin:miter;stroke:rgb(0%,0%,0%);stroke-opacity:1;stroke-miterlimit:4;" d="M 214.606335 669.512313 C 212.799348 668.805231 208.949681 666.605421 208.949681 664.484175 L 208.949681 637.300807 C 209.342504 635.808079 211.385185 634.865303 212.720784 633.922527 L 176.895304 633.922527 C 178.623727 634.865303 180.509278 635.572385 181.21636 637.300807 L 181.21636 664.484175 C 181.21636 666.605421 178.152339 668.805231 176.423917 669.590877 Z M 214.606335 669.512313 " transform="matrix(0.0497202,0,0,0.0497202,5.286761,-21.620317)"/>
<path style="fill-rule:nonzero;fill:rgb(100%,100%,100%);fill-opacity:1;stroke-width:0.96;stroke-linecap:butt;stroke-linejoin:miter;stroke:rgb(0%,0%,0%);stroke-opacity:1;stroke-miterlimit:4;" d="M 219.398779 634.236786 L 219.398779 614.595624 L 214.527771 614.595624 L 214.527771 612.710072 L 175.63827 612.710072 L 175.63827 614.595624 L 170.767262 614.595624 L 170.767262 634.236786 Z M 206.828435 669.512313 C 205.100013 668.805231 202.585944 666.605421 202.585944 664.484175 L 202.585944 641.229039 L 204.000108 639.186359 L 186.323062 639.186359 L 187.737226 641.229039 L 187.737226 664.484175 C 187.737226 666.605421 185.223157 668.805231 183.494735 669.512313 Z M 206.828435 669.512313 " transform="matrix(0.0497202,0,0,0.0497202,5.286761,-21.620317)"/>
<path style="fill-rule:nonzero;fill:rgb(100%,100%,100%);fill-opacity:1;stroke-width:0.981;stroke-linecap:butt;stroke-linejoin:miter;stroke:rgb(0%,0%,0%);stroke-opacity:1;stroke-miterlimit:4;" d="M 190.722682 639.186359 L 199.679052 639.186359 L 199.679052 669.512313 L 190.722682 669.512313 Z M 190.722682 639.186359 " transform="matrix(0.0497202,0,0,0.0497202,5.286761,-21.620317)"/>
<path style="fill-rule:nonzero;fill:rgb(100%,100%,100%);fill-opacity:1;stroke-width:0.96;stroke-linecap:butt;stroke-linejoin:bevel;stroke:rgb(0%,0%,0%);stroke-opacity:1;stroke-miterlimit:4;" d="M 204.392931 632.508363 C 204.392931 630.465683 210.206715 630.387118 213.192172 628.658696 L 177.288128 628.658696 C 180.273584 630.387118 185.930239 630.544247 185.930239 632.508363 L 187.187273 636.358031 L 202.035992 636.986548 Z M 204.392931 632.508363 " transform="matrix(0.0497202,0,0,0.0497202,5.286761,-21.620317)"/>
<path style="fill-rule:nonzero;fill:rgb(100%,100%,100%);fill-opacity:1;stroke-width:0.96;stroke-linecap:butt;stroke-linejoin:miter;stroke:rgb(0%,0%,0%);stroke-opacity:1;stroke-miterlimit:4;" d="M 211.385185 611.374473 C 211.385185 606.4249 211.620879 604.539349 213.113607 604.539349 L 213.113607 620.095149 C 209.421069 621.509313 206.828435 626.223192 206.828435 626.223192 L 183.5733 626.223192 C 183.5733 626.223192 180.980666 621.509313 177.288128 620.095149 L 177.288128 604.539349 C 179.095115 604.539349 179.095115 606.503465 179.095115 611.374473 Z M 213.113607 609.331792 C 213.113607 603.675138 217.984615 603.046621 217.984615 603.046621 L 217.984615 608.074758 C 216.099064 607.996193 215.234853 609.646051 215.234853 612.16012 C 215.234853 614.595624 216.727581 614.595624 216.727581 614.595624 L 216.727581 628.815825 L 213.113607 628.815825 Z M 213.113607 609.331792 " transform="matrix(0.0497202,0,0,0.0497202,5.286761,-21.620317)"/>
<path style="fill-rule:nonzero;fill:rgb(100%,100%,100%);fill-opacity:1;stroke-width:0.96;stroke-linecap:butt;stroke-linejoin:miter;stroke:rgb(0%,0%,0%);stroke-opacity:1;stroke-miterlimit:4;" d="M 177.288128 609.331792 C 177.288128 603.675138 172.41712 603.046621 172.41712 603.046621 L 172.41712 608.074758 C 174.302671 607.996193 175.166882 609.646051 175.166882 612.16012 C 175.166882 614.595624 173.674154 614.595624 173.674154 614.595624 L 173.674154 628.815825 L 177.288128 628.815825 Z M 177.288128 609.331792 " transform="matrix(0.0497202,0,0,0.0497202,5.286761,-21.620317)"/>
<path style="fill:none;stroke-width:0.8;stroke-linecap:butt;stroke-linejoin:miter;stroke:rgb(0%,0%,0%);stroke-opacity:1;stroke-miterlimit:4;" d="M 186.873015 570.599421 L 204.000108 570.599421 M 184.830334 575.941817 L 205.72853 575.941817 M 182.787653 582.462683 L 207.692646 582.462683 M 180.666408 590.397712 L 210.206715 590.397712 M 179.959326 599.432647 L 210.442409 599.432647 " transform="matrix(0.0497202,0,0,0.0497202,5.286761,-21.620317)"/>
<path style="fill:none;stroke-width:0.96;stroke-linecap:butt;stroke-linejoin:miter;stroke:rgb(0%,0%,0%);stroke-opacity:1;stroke-miterlimit:4;" d="M 170.767262 628.89439 L 219.398779 628.89439 M 186.165933 628.89439 L 204.235802 628.89439 L 204.235802 635.572385 L 186.165933 635.572385 Z M 186.165933 628.89439 " transform="matrix(0.0497202,0,0,0.0497202,5.286761,-21.620317)"/>
<path style="fill-rule:nonzero;fill:rgb(100%,100%,100%);fill-opacity:1;stroke-width:0.96;stroke-linecap:butt;stroke-linejoin:miter;stroke:rgb(0%,0%,0%);stroke-opacity:1;stroke-miterlimit:4;" d="M 183.966123 614.202801 C 186.951579 617.816774 186.637321 623.944817 186.637321 627.480226 L 203.921543 627.480226 C 203.921543 623.944817 203.607285 617.816774 206.592741 614.202801 Z M 193.708139 573.11349 L 191.272635 571.856455 L 191.272635 568.399611 C 192.293975 568.713869 193.39388 568.792434 193.472445 570.363727 C 193.786704 568.163917 194.415221 568.242482 195.357997 567.37827 C 196.300772 568.242482 196.92929 568.163917 197.322113 570.363727 C 197.400678 568.792434 198.500583 568.713869 199.443358 568.399611 L 199.443358 571.856455 L 197.086419 573.11349 Z M 193.708139 573.11349 " transform="matrix(0.0497202,0,0,0.0497202,5.286761,-21.620317)"/>
<path style="fill-rule:nonzero;fill:rgb(100%,100%,100%);fill-opacity:1;stroke-width:0.96;stroke-linecap:butt;stroke-linejoin:miter;stroke:rgb(0%,0%,0%);stroke-opacity:1;stroke-miterlimit:4;" d="M 193.55101 578.848709 L 189.544213 576.098946 L 189.544213 572.877796 C 190.958376 573.270619 192.529669 573.349184 192.686799 575.077606 C 193.158187 572.642102 194.022398 571.385068 195.357997 570.442292 C 196.77216 571.385068 197.636371 572.642102 198.107759 575.077606 C 198.264889 573.349184 199.836182 573.270619 201.171781 572.877796 L 201.171781 576.098946 L 197.243548 578.848709 Z M 193.55101 578.848709 " transform="matrix(0.0497202,0,0,0.0497202,5.286761,-21.620317)"/>
<path style="fill-rule:nonzero;fill:rgb(100%,100%,100%);fill-opacity:1;stroke-width:0.96;stroke-linecap:butt;stroke-linejoin:miter;stroke:rgb(0%,0%,0%);stroke-opacity:1;stroke-miterlimit:4;" d="M 193.236751 587.805079 L 188.680002 583.798282 L 188.680002 579.084403 C 190.329859 579.555791 192.058281 579.71292 192.215411 582.226989 C 192.843928 578.69158 193.786704 576.806028 195.357997 575.470429 C 196.92929 576.806028 197.95063 578.69158 198.500583 582.226989 C 198.657712 579.71292 200.464699 579.555791 202.035992 579.084403 L 202.035992 583.798282 L 197.479242 587.805079 Z M 201.643169 593.06891 L 197.479242 598.80413 L 192.843928 598.80413 L 188.758566 593.06891 Z M 186.401627 602.653797 C 188.444308 603.753702 189.229954 605.953513 189.387083 610.196004 L 200.936087 610.196004 C 201.171781 605.953513 201.957427 603.753702 204.000108 602.653797 Z M 186.401627 602.653797 " transform="matrix(0.0497202,0,0,0.0497202,5.286761,-21.620317)"/>
<path style="fill-rule:nonzero;fill:rgb(100%,100%,100%);fill-opacity:1;stroke-width:0.96;stroke-linecap:butt;stroke-linejoin:bevel;stroke:rgb(0%,0%,0%);stroke-opacity:1;stroke-miterlimit:4;" d="M 204.157237 593.06891 L 204.157237 587.412256 C 202.193121 587.962208 200.936087 589.062113 200.386134 590.633406 C 200.386134 588.747855 197.872065 584.426799 195.200867 582.226989 C 192.451105 584.662493 189.937036 588.590725 190.015601 590.633406 C 189.544213 589.140678 188.130049 587.962208 186.244498 587.412256 L 186.244498 593.06891 Z M 204.157237 593.06891 " transform="matrix(0.0497202,0,0,0.0497202,5.286761,-21.620317)"/>
<path style="fill-rule:nonzero;fill:rgb(100%,100%,100%);fill-opacity:1;stroke-width:0.96;stroke-linecap:butt;stroke-linejoin:bevel;stroke:rgb(0%,0%,0%);stroke-opacity:1;stroke-miterlimit:4;" d="M 205.021448 602.653797 L 205.021448 596.918578 C 202.900203 597.468531 201.486039 598.647 200.936087 600.139729 C 200.936087 598.254177 198.186324 593.933121 195.200867 591.733311 C 192.215411 594.168815 189.465648 598.097048 189.465648 600.139729 C 188.99426 598.647 187.501532 597.468531 185.380286 596.918578 L 185.380286 602.653797 Z M 205.021448 602.653797 " transform="matrix(0.0497202,0,0,0.0497202,5.286761,-21.620317)"/>
<path style="fill-rule:nonzero;fill:rgb(100%,100%,100%);fill-opacity:1;stroke-width:0.96;stroke-linecap:butt;stroke-linejoin:bevel;stroke:rgb(0%,0%,0%);stroke-opacity:1;stroke-miterlimit:4;" d="M 207.456952 614.281365 L 207.456952 607.760499 C 204.785754 608.467581 203.135897 610.431697 202.271686 611.531603 C 202.271686 607.996193 198.264889 602.575233 195.200867 600.768246 C 192.058281 602.575233 188.051484 608.231887 188.051484 611.531603 C 187.265838 610.431697 185.61598 608.467581 182.944782 607.760499 L 182.944782 614.281365 Z M 207.456952 614.281365 " transform="matrix(0.0497202,0,0,0.0497202,5.286761,-21.620317)"/>
<path style="fill-rule:nonzero;fill:rgb(100%,100%,100%);fill-opacity:1;stroke-width:0.96;stroke-linecap:butt;stroke-linejoin:bevel;stroke:rgb(0%,0%,0%);stroke-opacity:1;stroke-miterlimit:4;" d="M 205.964224 628.89439 L 205.964224 622.13783 C 203.685849 623.080606 202.978768 625.358981 202.193121 626.851709 C 202.50738 620.016584 198.343453 612.631508 195.200867 610.745956 C 192.058281 612.631508 187.81579 620.173714 188.130049 626.851709 C 187.422967 625.358981 186.715885 623.080606 184.358946 622.13783 L 184.358946 628.89439 Z M 205.964224 628.89439 " transform="matrix(0.0497202,0,0,0.0497202,5.286761,-21.620317)"/>
<path style="fill-rule:nonzero;fill:rgb(100%,100%,100%);fill-opacity:1;stroke-width:0.96;stroke-linecap:butt;stroke-linejoin:miter;stroke:rgb(0%,0%,0%);stroke-opacity:1;stroke-miterlimit:4;" d="M 204.392931 639.186359 L 204.392931 632.429799 C 201.878862 632.979751 201.721733 633.922527 200.936087 635.415255 C 201.250345 631.329894 198.343453 626.616015 195.200867 624.730463 C 192.058281 626.616015 189.15139 631.329894 189.387083 635.415255 C 188.680002 633.922527 188.522872 632.979751 186.008804 632.429799 L 186.008804 639.186359 Z M 204.392931 639.186359 " transform="matrix(0.0497202,0,0,0.0497202,5.286761,-21.620317)"/>
<path style="fill-rule:nonzero;fill:rgb(100%,100%,100%);fill-opacity:1;stroke-width:0.96;stroke-linecap:butt;stroke-linejoin:miter;stroke:rgb(0%,0%,0%);stroke-opacity:1;stroke-miterlimit:4;" d="M 98.959174 664.248481 L 98.959174 643.821673 C 98.252092 641.150475 96.052282 638.8721 94.402424 638.400712 L 94.402424 620.409408 L 98.173527 622.452089 L 102.416018 641.229039 L 102.416018 664.248481 Z M 98.959174 664.248481 " transform="matrix(0.0497202,0,0,0.0497202,5.286761,-21.620317)"/>
<path style="fill-rule:nonzero;fill:rgb(100%,100%,100%);fill-opacity:1;stroke-width:0.96;stroke-linecap:butt;stroke-linejoin:miter;stroke:rgb(0%,0%,0%);stroke-opacity:1;stroke-miterlimit:4;" d="M 98.959174 664.327046 L 98.959174 643.821673 C 98.252092 641.150475 96.052282 638.8721 94.402424 638.400712 L 94.402424 619.152373 C 96.916493 619.152373 98.173527 622.452089 98.173527 622.452089 L 102.416018 641.229039 L 102.416018 664.169917 Z M 98.959174 664.327046 " transform="matrix(0.0497202,0,0,0.0497202,5.286761,-21.620317)"/>
<path style="fill-rule:nonzero;fill:rgb(100%,100%,100%);fill-opacity:1;stroke-width:0.96;stroke-linecap:butt;stroke-linejoin:miter;stroke:rgb(0%,0%,0%);stroke-opacity:1;stroke-miterlimit:4;" d="M 96.287976 669.512313 C 98.016398 668.805231 100.530467 666.605421 100.530467 664.484175 L 100.530467 638.950665 L 99.351997 636.829419 L 142.876812 636.829419 L 141.14839 638.950665 L 141.14839 664.484175 C 141.14839 666.605421 142.876812 668.805231 144.605234 669.512313 Z M 96.287976 669.512313 " transform="matrix(0.0497202,0,0,0.0497202,5.286761,-21.620317)"/>
<path style="fill-rule:nonzero;fill:rgb(100%,100%,100%);fill-opacity:1;stroke-width:0.96;stroke-linecap:butt;stroke-linejoin:miter;stroke:rgb(0%,0%,0%);stroke-opacity:1;stroke-miterlimit:4;" d="M 135.805994 669.512313 C 134.077571 668.805231 131.563503 666.605421 131.563503 664.484175 L 131.563503 640.207699 L 135.177476 636.829419 L 105.637169 636.829419 L 109.251143 640.207699 L 109.251143 664.484175 C 109.251143 666.605421 106.737074 668.805231 105.008652 669.512313 Z M 135.805994 669.512313 " transform="matrix(0.0497202,0,0,0.0497202,5.286761,-21.620317)"/>
<path style="fill-rule:nonzero;fill:rgb(100%,100%,100%);fill-opacity:1;stroke-width:0.96;stroke-linecap:butt;stroke-linejoin:miter;stroke:rgb(0%,0%,0%);stroke-opacity:1;stroke-miterlimit:4;" d="M 131.720632 669.512313 C 129.99221 668.805231 127.478141 666.605421 127.478141 664.484175 L 127.478141 642.486074 L 129.83508 639.186359 L 110.979565 639.186359 L 113.415069 642.486074 L 113.415069 664.484175 C 113.415069 666.605421 110.901 668.805231 109.094013 669.512313 Z M 131.720632 669.512313 " transform="matrix(0.0497202,0,0,0.0497202,5.286761,-21.620317)"/>
<path style="fill-rule:nonzero;fill:rgb(100%,100%,100%);fill-opacity:1;stroke-width:0.96;stroke-linecap:butt;stroke-linejoin:miter;stroke:rgb(0%,0%,0%);stroke-opacity:1;stroke-miterlimit:4;" d="M 115.929138 639.186359 L 124.885508 639.186359 L 124.885508 669.590877 L 115.929138 669.590877 Z M 115.929138 639.186359 " transform="matrix(0.0497202,0,0,0.0497202,5.286761,-21.620317)"/>
<path style="fill-rule:nonzero;fill:rgb(100%,100%,100%);fill-opacity:1;stroke-width:0.96;stroke-linecap:butt;stroke-linejoin:bevel;stroke:rgb(0%,0%,0%);stroke-opacity:1;stroke-miterlimit:4;" d="M 103.673053 647.67134 L 107.287027 647.67134 L 107.287027 664.169917 L 103.673053 664.169917 Z M 134.470395 647.67134 L 138.005804 647.67134 L 138.005804 664.169917 L 134.470395 664.169917 Z M 100.609031 619.780891 L 104.930087 619.780891 L 104.930087 636.750854 L 100.609031 636.750854 Z M 100.609031 616.638305 L 104.930087 616.638305 L 104.930087 619.780891 L 100.609031 619.780891 Z M 100.609031 616.638305 " transform="matrix(0.0497202,0,0,0.0497202,5.286761,-21.620317)"/>
<path style="fill-rule:nonzero;fill:rgb(100%,100%,100%);fill-opacity:1;stroke-width:1.034;stroke-linecap:butt;stroke-linejoin:bevel;stroke:rgb(0%,0%,0%);stroke-opacity:1;stroke-miterlimit:4;" d="M 136.198817 623.473429 L 142.326859 623.473429 L 142.326859 636.515161 L 136.198817 636.515161 Z M 136.198817 623.473429 " transform="matrix(0.0497202,0,0,0.0497202,5.286761,-21.620317)"/>
<path style="fill-rule:nonzero;fill:rgb(100%,100%,100%);fill-opacity:1;stroke-width:0.96;stroke-linecap:butt;stroke-linejoin:miter;stroke:rgb(0%,0%,0%);stroke-opacity:1;stroke-miterlimit:4;" d="M 104.851522 636.593725 L 104.851522 607.681935 C 106.108557 607.681935 106.344251 611.924426 109.172578 611.924426 C 110.586742 611.924426 110.429612 610.117439 109.643966 608.703275 C 108.858319 607.446241 107.994108 605.717819 109.251143 602.418103 C 110.036789 604.932172 112.315164 605.717819 111.922341 604.146526 C 111.215259 601.475328 109.094013 601.00394 110.665306 596.840013 C 111.215259 600.296858 113.415069 600.218293 112.943681 598.175612 C 112.315164 595.897238 111.05813 594.954462 112.629423 591.733311 C 113.493634 595.347285 114.672103 595.190156 114.672103 592.911781 C 114.672103 589.533501 114.514974 585.919527 118.83603 584.583928 C 118.83603 584.583928 119.071724 581.519907 120.643017 581.519907 C 122.21431 581.519907 122.450004 584.583928 122.450004 584.583928 C 126.771059 585.919527 126.692495 589.533501 126.692495 592.911781 C 126.692495 595.190156 127.870964 595.347285 128.735175 591.733311 C 130.306468 594.954462 129.049434 595.897238 128.420917 598.175612 C 127.870964 600.218293 130.070774 600.296858 130.620727 596.840013 C 132.19202 601.00394 130.149339 601.475328 129.363693 604.146526 C 128.970869 605.717819 131.249244 604.932172 132.113455 602.418103 C 133.291925 605.717819 132.427714 607.446241 131.720632 608.703275 C 130.856421 610.117439 130.699292 611.924426 132.19202 611.924426 C 135.020347 611.924426 135.177476 607.681935 136.434511 607.681935 L 136.434511 636.593725 Z M 98.094963 614.752753 L 98.094963 636.829419 L 100.609031 636.829419 L 100.609031 614.674188 C 99.74482 614.202801 98.880609 614.124236 98.094963 614.752753 Z M 98.094963 614.752753 " transform="matrix(0.0497202,0,0,0.0497202,5.286761,-21.620317)"/>
<path style="fill-rule:nonzero;fill:rgb(100%,100%,100%);fill-opacity:1;stroke-width:0.96;stroke-linecap:butt;stroke-linejoin:miter;stroke:rgb(0%,0%,0%);stroke-opacity:1;stroke-miterlimit:4;" d="M 98.173527 629.051519 C 101.316113 630.622812 104.380135 632.429799 105.165781 636.829419 L 98.173527 636.829419 Z M 141.384084 622.452089 L 141.384084 636.829419 L 143.426765 636.829419 L 143.426765 622.373524 C 142.798247 622.059265 141.934036 622.059265 141.384084 622.452089 Z M 141.384084 622.452089 " transform="matrix(0.0497202,0,0,0.0497202,5.286761,-21.620317)"/>
<path style="fill-rule:nonzero;fill:rgb(100%,100%,100%);fill-opacity:1;stroke-width:0.96;stroke-linecap:butt;stroke-linejoin:miter;stroke:rgb(0%,0%,0%);stroke-opacity:1;stroke-miterlimit:4;" d="M 143.426765 628.89439 C 140.284179 630.544247 137.220157 632.351234 136.434511 636.750854 L 143.426765 636.750854 Z M 143.426765 628.89439 " transform="matrix(0.0497202,0,0,0.0497202,5.286761,-21.620317)"/>
<path style="fill-rule:nonzero;fill:rgb(100%,100%,100%);fill-opacity:1;stroke-width:0.96;stroke-linecap:butt;stroke-linejoin:miter;stroke:rgb(0%,0%,0%);stroke-opacity:1;stroke-miterlimit:4;" d="M 122.842827 595.26872 L 124.649814 593.775992 L 124.649814 591.811876 C 123.942732 591.890441 123.628473 592.04757 123.157085 592.754652 C 122.685697 591.419053 121.821486 590.397712 120.564452 589.769195 C 119.307418 590.397712 118.443207 591.419053 117.971819 592.676087 C 117.500431 592.04757 117.186172 591.890441 116.47909 591.811876 L 116.47909 593.775992 L 118.286077 595.26872 Z M 122.842827 595.26872 " transform="matrix(0.0497202,0,0,0.0497202,5.286761,-21.620317)"/>
<path style="fill-rule:nonzero;fill:rgb(100%,100%,100%);fill-opacity:1;stroke-width:0.96;stroke-linecap:butt;stroke-linejoin:miter;stroke:rgb(0%,0%,0%);stroke-opacity:1;stroke-miterlimit:4;" d="M 123.785603 600.139729 L 124.649814 598.332742 L 124.649814 595.818673 C 123.942732 595.897238 123.628473 596.054367 123.157085 596.761449 C 122.685697 595.42585 121.821486 594.404509 120.564452 593.775992 C 119.307418 594.404509 118.443207 595.42585 117.971819 596.682884 C 117.500431 596.054367 117.186172 595.897238 116.47909 595.818673 L 116.47909 598.332742 L 117.343301 600.139729 Z M 123.785603 600.139729 " transform="matrix(0.0497202,0,0,0.0497202,5.286761,-21.620317)"/>
<path style="fill-rule:nonzero;fill:rgb(100%,100%,100%);fill-opacity:1;stroke-width:0.96;stroke-linecap:butt;stroke-linejoin:miter;stroke:rgb(0%,0%,0%);stroke-opacity:1;stroke-miterlimit:4;" d="M 123.942732 606.817724 L 126.61393 603.518008 L 126.61393 600.296858 C 125.671154 600.375423 125.121202 600.768246 124.335555 601.868151 C 123.785603 599.668341 122.371439 599.196953 120.564452 598.097048 C 118.757465 599.196953 117.343301 599.589776 116.793349 601.789586 C 116.007702 600.689681 115.45775 600.375423 114.514974 600.296858 L 114.514974 603.518008 L 117.186172 606.817724 Z M 123.942732 606.817724 " transform="matrix(0.0497202,0,0,0.0497202,5.286761,-21.620317)"/>
<path style="fill-rule:nonzero;fill:rgb(100%,100%,100%);fill-opacity:1;stroke-width:0.96;stroke-linecap:butt;stroke-linejoin:miter;stroke:rgb(0%,0%,0%);stroke-opacity:1;stroke-miterlimit:4;" d="M 124.728378 613.338589 C 124.728378 613.338589 127.870964 610.588827 128.028094 609.017534 L 128.028094 605.560689 C 126.849624 605.717819 125.671154 606.032077 124.806943 607.446241 C 124.021297 604.617914 122.842827 603.832267 120.564452 602.418103 C 118.286077 603.832267 117.107608 604.617914 116.321961 607.446241 C 115.45775 606.032077 114.27928 605.717819 113.10081 605.560689 L 113.10081 609.017534 C 113.493634 610.588827 116.400526 613.260025 116.400526 613.260025 Z M 124.728378 613.338589 " transform="matrix(0.0497202,0,0,0.0497202,5.286761,-21.620317)"/>
<path style="fill-rule:nonzero;fill:rgb(100%,100%,100%);fill-opacity:1;stroke-width:0.96;stroke-linecap:butt;stroke-linejoin:miter;stroke:rgb(0%,0%,0%);stroke-opacity:1;stroke-miterlimit:4;" d="M 126.063977 625.358981 C 126.063977 625.358981 130.385033 620.566537 130.463598 618.680985 L 130.463598 613.260025 C 128.81374 613.495719 127.321012 614.595624 126.142542 616.873999 C 125.121202 612.395814 123.549909 609.253228 120.564452 607.053418 C 117.578995 609.253228 116.007702 612.395814 114.986362 616.873999 C 113.807892 614.595624 112.315164 613.495719 110.665306 613.260025 L 110.665306 618.680985 C 110.979565 620.566537 115.064927 625.280416 115.064927 625.280416 Z M 126.063977 625.358981 " transform="matrix(0.0497202,0,0,0.0497202,5.286761,-21.620317)"/>
<path style="fill-rule:nonzero;fill:rgb(100%,100%,100%);fill-opacity:1;stroke-width:0.96;stroke-linecap:butt;stroke-linejoin:miter;stroke:rgb(0%,0%,0%);stroke-opacity:1;stroke-miterlimit:4;" d="M 126.063977 632.429799 C 126.063977 632.429799 129.756516 628.658696 130.463598 627.087403 L 130.463598 621.666442 C 128.81374 621.902136 127.321012 623.002041 126.142542 625.201851 C 125.121202 620.723666 123.549909 618.209598 120.564452 616.009787 C 117.578995 618.209598 116.007702 620.723666 114.986362 625.201851 C 113.807892 623.002041 112.315164 621.902136 110.665306 621.666442 L 110.665306 627.087403 C 111.608082 628.658696 115.064927 632.429799 115.064927 632.429799 Z M 126.063977 632.429799 " transform="matrix(0.0497202,0,0,0.0497202,5.286761,-21.620317)"/>
<path style="fill-rule:nonzero;fill:rgb(100%,100%,100%);fill-opacity:1;stroke-width:0.96;stroke-linecap:butt;stroke-linejoin:miter;stroke:rgb(0%,0%,0%);stroke-opacity:1;stroke-miterlimit:4;" d="M 127.556706 636.593725 C 126.456801 631.879846 125.514025 628.423002 120.407323 624.887593 C 115.222056 628.423002 114.27928 631.879846 113.179375 636.593725 Z M 127.556706 636.593725 " transform="matrix(0.0497202,0,0,0.0497202,5.286761,-21.620317)"/>
<path style="fill-rule:nonzero;fill:rgb(100%,100%,100%);fill-opacity:1;stroke-width:0.96;stroke-linecap:butt;stroke-linejoin:miter;stroke:rgb(0%,0%,0%);stroke-opacity:1;stroke-miterlimit:4;" d="M 130.227904 639.186359 L 130.227904 632.429799 C 127.870964 633.29401 125.749719 634.708174 124.964072 636.200902 C 124.099861 632.429799 122.371439 630.779941 120.328758 628.501566 C 118.207513 630.779941 116.793349 632.429799 115.929138 636.200902 C 115.143491 634.708174 113.022246 633.29401 110.665306 632.429799 L 110.665306 639.186359 Z M 130.227904 639.186359 " transform="matrix(0.0497202,0,0,0.0497202,5.286761,-21.620317)"/>
<path style="fill-rule:nonzero;fill:rgb(100%,100%,100%);fill-opacity:1;stroke-width:0.96;stroke-linecap:butt;stroke-linejoin:miter;stroke:rgb(0%,0%,0%);stroke-opacity:1;stroke-miterlimit:4;" d="M 98.904616 664.248481 L 98.904616 643.821673 C 98.276099 641.150475 96.076289 638.8721 94.426431 638.400712 L 94.426431 620.409408 L 98.118969 622.452089 L 102.440025 641.229039 L 102.440025 664.248481 Z M 98.904616 664.248481 " transform="matrix(-0.0497202,0,0,0.0497202,24.714432,-21.620317)"/>
<path style="fill-rule:nonzero;fill:rgb(100%,100%,100%);fill-opacity:1;stroke-width:0.96;stroke-linecap:butt;stroke-linejoin:miter;stroke:rgb(0%,0%,0%);stroke-opacity:1;stroke-miterlimit:4;" d="M 98.904616 664.327046 L 98.904616 643.821673 C 98.276099 641.150475 96.076289 638.8721 94.426431 638.400712 L 94.426431 619.152373 C 96.9405 619.152373 98.118969 622.452089 98.118969 622.452089 L 102.440025 641.229039 L 102.440025 664.169917 Z M 98.904616 664.327046 " transform="matrix(-0.0497202,0,0,0.0497202,24.714432,-21.620317)"/>
<path style="fill-rule:nonzero;fill:rgb(100%,100%,100%);fill-opacity:1;stroke-width:0.96;stroke-linecap:butt;stroke-linejoin:miter;stroke:rgb(0%,0%,0%);stroke-opacity:1;stroke-miterlimit:4;" d="M 96.311982 669.512313 C 98.040405 668.805231 100.554473 666.605421 100.554473 664.484175 L 100.554473 638.950665 L 99.376004 636.829419 L 142.822254 636.829419 L 141.172396 638.950665 L 141.172396 664.484175 C 141.172396 666.605421 142.900819 668.805231 144.629241 669.512313 Z M 96.311982 669.512313 " transform="matrix(-0.0497202,0,0,0.0497202,24.714432,-21.620317)"/>
<path style="fill-rule:nonzero;fill:rgb(100%,100%,100%);fill-opacity:1;stroke-width:0.96;stroke-linecap:butt;stroke-linejoin:miter;stroke:rgb(0%,0%,0%);stroke-opacity:1;stroke-miterlimit:4;" d="M 135.83 669.512313 C 134.101578 668.805231 131.587509 666.605421 131.587509 664.484175 L 131.587509 640.207699 L 135.201483 636.829419 L 105.661176 636.829419 L 109.275149 640.207699 L 109.275149 664.484175 C 109.275149 666.605421 106.761081 668.805231 104.954094 669.512313 Z M 135.83 669.512313 " transform="matrix(-0.0497202,0,0,0.0497202,24.714432,-21.620317)"/>
<path style="fill-rule:nonzero;fill:rgb(100%,100%,100%);fill-opacity:1;stroke-width:0.96;stroke-linecap:butt;stroke-linejoin:miter;stroke:rgb(0%,0%,0%);stroke-opacity:1;stroke-miterlimit:4;" d="M 131.666074 669.512313 C 129.937652 668.805231 127.423583 666.605421 127.423583 664.484175 L 127.423583 642.486074 L 129.780522 639.186359 L 111.003572 639.186359 L 113.360511 642.486074 L 113.360511 664.484175 C 113.360511 666.605421 110.846442 668.805231 109.11802 669.512313 Z M 131.666074 669.512313 " transform="matrix(-0.0497202,0,0,0.0497202,24.714432,-21.620317)"/>
<path style="fill-rule:nonzero;fill:rgb(100%,100%,100%);fill-opacity:1;stroke-width:0.96;stroke-linecap:butt;stroke-linejoin:miter;stroke:rgb(0%,0%,0%);stroke-opacity:1;stroke-miterlimit:4;" d="M 115.953144 639.186359 L 124.909514 639.186359 L 124.909514 669.590877 L 115.953144 669.590877 Z M 115.953144 639.186359 " transform="matrix(-0.0497202,0,0,0.0497202,24.714432,-21.620317)"/>
<path style="fill-rule:nonzero;fill:rgb(100%,100%,100%);fill-opacity:1;stroke-width:0.96;stroke-linecap:butt;stroke-linejoin:bevel;stroke:rgb(0%,0%,0%);stroke-opacity:1;stroke-miterlimit:4;" d="M 103.697059 647.67134 L 107.311033 647.67134 L 107.311033 664.169917 L 103.697059 664.169917 Z M 134.415837 647.67134 L 138.02981 647.67134 L 138.02981 664.169917 L 134.415837 664.169917 Z M 100.633038 619.780891 L 104.954094 619.780891 L 104.954094 636.750854 L 100.633038 636.750854 Z M 100.633038 616.638305 L 104.954094 616.638305 L 104.954094 619.780891 L 100.633038 619.780891 Z M 100.633038 616.638305 " transform="matrix(-0.0497202,0,0,0.0497202,24.714432,-21.620317)"/>
<path style="fill-rule:nonzero;fill:rgb(100%,100%,100%);fill-opacity:1;stroke-width:1.034;stroke-linecap:butt;stroke-linejoin:bevel;stroke:rgb(0%,0%,0%);stroke-opacity:1;stroke-miterlimit:4;" d="M 136.144259 623.473429 L 142.350866 623.473429 L 142.350866 636.515161 L 136.144259 636.515161 Z M 136.144259 623.473429 " transform="matrix(-0.0497202,0,0,0.0497202,24.714432,-21.620317)"/>
<path style="fill-rule:nonzero;fill:rgb(100%,100%,100%);fill-opacity:1;stroke-width:0.96;stroke-linecap:butt;stroke-linejoin:miter;stroke:rgb(0%,0%,0%);stroke-opacity:1;stroke-miterlimit:4;" d="M 104.875529 636.593725 L 104.875529 607.681935 C 106.132563 607.681935 106.289693 611.924426 109.11802 611.924426 C 110.610748 611.924426 110.453619 610.117439 109.589408 608.703275 C 108.882326 607.446241 108.018115 605.717819 109.196585 602.418103 C 110.060796 604.932172 112.339171 605.717819 111.946347 604.146526 C 111.160701 601.475328 109.11802 601.00394 110.689313 596.840013 C 111.239266 600.296858 113.439076 600.218293 112.889123 598.175612 C 112.260606 595.897238 111.003572 594.954462 112.574865 591.733311 C 113.439076 595.347285 114.617545 595.190156 114.617545 592.911781 C 114.617545 589.533501 114.538981 585.919527 118.860036 584.583928 C 118.860036 584.583928 119.09573 581.519907 120.667023 581.519907 C 122.238316 581.519907 122.47401 584.583928 122.47401 584.583928 C 126.795066 585.919527 126.637937 589.533501 126.637937 592.911781 C 126.637937 595.190156 127.816406 595.347285 128.759182 591.733311 C 130.25191 594.954462 128.994876 595.897238 128.444923 598.175612 C 127.894971 600.218293 130.094781 600.296858 130.644734 596.840013 C 132.216027 601.00394 130.094781 601.475328 129.387699 604.146526 C 128.994876 605.717819 131.273251 604.932172 132.058897 602.418103 C 133.315932 605.717819 132.45172 607.446241 131.666074 608.703275 C 130.880427 610.117439 130.723298 611.924426 132.216027 611.924426 C 134.965789 611.924426 135.201483 607.681935 136.458517 607.681935 L 136.458517 636.593725 Z M 98.118969 614.752753 L 98.118969 636.829419 L 100.633038 636.829419 L 100.633038 614.674188 C 99.768827 614.202801 98.904616 614.124236 98.118969 614.752753 Z M 98.118969 614.752753 " transform="matrix(-0.0497202,0,0,0.0497202,24.714432,-21.620317)"/>
<path style="fill-rule:nonzero;fill:rgb(100%,100%,100%);fill-opacity:1;stroke-width:0.96;stroke-linecap:butt;stroke-linejoin:miter;stroke:rgb(0%,0%,0%);stroke-opacity:1;stroke-miterlimit:4;" d="M 98.197534 629.051519 C 101.34012 630.622812 104.404141 632.429799 105.189788 636.829419 L 98.197534 636.829419 Z M 141.40809 622.452089 L 141.40809 636.829419 L 143.372206 636.829419 L 143.372206 622.373524 C 142.743689 622.059265 141.879478 622.059265 141.40809 622.452089 Z M 141.40809 622.452089 " transform="matrix(-0.0497202,0,0,0.0497202,24.714432,-21.620317)"/>
<path style="fill-rule:nonzero;fill:rgb(100%,100%,100%);fill-opacity:1;stroke-width:0.96;stroke-linecap:butt;stroke-linejoin:miter;stroke:rgb(0%,0%,0%);stroke-opacity:1;stroke-miterlimit:4;" d="M 143.372206 628.89439 C 140.308185 630.544247 137.244164 632.351234 136.458517 636.750854 L 143.372206 636.750854 Z M 143.372206 628.89439 " transform="matrix(-0.0497202,0,0,0.0497202,24.714432,-21.620317)"/>
<path style="fill-rule:nonzero;fill:rgb(100%,100%,100%);fill-opacity:1;stroke-width:0.96;stroke-linecap:butt;stroke-linejoin:miter;stroke:rgb(0%,0%,0%);stroke-opacity:1;stroke-miterlimit:4;" d="M 122.866833 595.26872 L 124.67382 593.775992 L 124.67382 591.811876 C 123.966738 591.890441 123.65248 592.04757 123.102527 592.754652 C 122.709704 591.419053 121.766928 590.397712 120.588459 589.769195 C 119.331424 590.397712 118.388649 591.419053 117.995825 592.676087 C 117.524437 592.04757 117.131614 591.890441 116.503097 591.811876 L 116.503097 593.775992 L 118.310084 595.26872 Z M 122.866833 595.26872 " transform="matrix(-0.0497202,0,0,0.0497202,24.714432,-21.620317)"/>
<path style="fill-rule:nonzero;fill:rgb(100%,100%,100%);fill-opacity:1;stroke-width:0.96;stroke-linecap:butt;stroke-linejoin:miter;stroke:rgb(0%,0%,0%);stroke-opacity:1;stroke-miterlimit:4;" d="M 123.809609 600.139729 L 124.67382 598.332742 L 124.67382 595.818673 C 123.966738 595.897238 123.65248 596.054367 123.102527 596.761449 C 122.709704 595.42585 121.766928 594.404509 120.588459 593.775992 C 119.331424 594.404509 118.388649 595.42585 117.995825 596.682884 C 117.524437 596.054367 117.131614 595.897238 116.503097 595.818673 L 116.503097 598.332742 L 117.367308 600.139729 Z M 123.809609 600.139729 " transform="matrix(-0.0497202,0,0,0.0497202,24.714432,-21.620317)"/>
<path style="fill-rule:nonzero;fill:rgb(100%,100%,100%);fill-opacity:1;stroke-width:0.96;stroke-linecap:butt;stroke-linejoin:miter;stroke:rgb(0%,0%,0%);stroke-opacity:1;stroke-miterlimit:4;" d="M 123.966738 606.817724 L 126.637937 603.518008 L 126.637937 600.296858 C 125.616596 600.375423 125.066644 600.768246 124.359562 601.868151 C 123.731045 599.668341 122.395446 599.196953 120.588459 598.097048 C 118.702907 599.196953 117.367308 599.589776 116.738791 601.789586 C 116.031709 600.689681 115.481757 600.375423 114.538981 600.296858 L 114.538981 603.518008 L 117.210179 606.817724 Z M 123.966738 606.817724 " transform="matrix(-0.0497202,0,0,0.0497202,24.714432,-21.620317)"/>
<path style="fill-rule:nonzero;fill:rgb(100%,100%,100%);fill-opacity:1;stroke-width:0.96;stroke-linecap:butt;stroke-linejoin:miter;stroke:rgb(0%,0%,0%);stroke-opacity:1;stroke-miterlimit:4;" d="M 124.752385 613.338589 C 124.752385 613.338589 127.894971 610.588827 128.0521 609.017534 L 128.0521 605.560689 C 126.795066 605.717819 125.695161 606.032077 124.752385 607.446241 C 124.045303 604.617914 122.788269 603.832267 120.588459 602.418103 C 118.310084 603.832267 117.131614 604.617914 116.345968 607.446241 C 115.481757 606.032077 114.303287 605.717819 113.124817 605.560689 L 113.124817 609.017534 C 113.51764 610.588827 116.424532 613.260025 116.424532 613.260025 Z M 124.752385 613.338589 " transform="matrix(-0.0497202,0,0,0.0497202,24.714432,-21.620317)"/>
<path style="fill-rule:nonzero;fill:rgb(100%,100%,100%);fill-opacity:1;stroke-width:0.96;stroke-linecap:butt;stroke-linejoin:miter;stroke:rgb(0%,0%,0%);stroke-opacity:1;stroke-miterlimit:4;" d="M 126.087984 625.358981 C 126.087984 625.358981 130.330475 620.566537 130.487604 618.680985 L 130.487604 613.260025 C 128.837747 613.495719 127.345018 614.595624 126.166549 616.873999 C 125.145208 612.395814 123.573915 609.253228 120.588459 607.053418 C 117.603002 609.253228 116.031709 612.395814 115.010369 616.873999 C 113.831899 614.595624 112.260606 613.495719 110.689313 613.260025 L 110.689313 618.680985 C 111.003572 620.566537 115.088933 625.280416 115.088933 625.280416 Z M 126.087984 625.358981 " transform="matrix(-0.0497202,0,0,0.0497202,24.714432,-21.620317)"/>
<path style="fill-rule:nonzero;fill:rgb(100%,100%,100%);fill-opacity:1;stroke-width:0.96;stroke-linecap:butt;stroke-linejoin:miter;stroke:rgb(0%,0%,0%);stroke-opacity:1;stroke-miterlimit:4;" d="M 126.087984 632.429799 C 126.087984 632.429799 129.701958 628.658696 130.487604 627.087403 L 130.487604 621.666442 C 128.837747 621.902136 127.345018 623.002041 126.166549 625.201851 C 125.145208 620.723666 123.573915 618.209598 120.588459 616.009787 C 117.603002 618.209598 116.031709 620.723666 115.010369 625.201851 C 113.831899 623.002041 112.260606 621.902136 110.689313 621.666442 L 110.689313 627.087403 C 111.632089 628.658696 115.088933 632.429799 115.088933 632.429799 Z M 126.087984 632.429799 " transform="matrix(-0.0497202,0,0,0.0497202,24.714432,-21.620317)"/>
<path style="fill-rule:nonzero;fill:rgb(100%,100%,100%);fill-opacity:1;stroke-width:0.96;stroke-linecap:butt;stroke-linejoin:miter;stroke:rgb(0%,0%,0%);stroke-opacity:1;stroke-miterlimit:4;" d="M 127.502148 636.593725 C 126.480807 631.879846 125.538031 628.423002 120.352765 624.887593 C 115.246063 628.423002 114.303287 631.879846 113.203382 636.593725 Z M 127.502148 636.593725 " transform="matrix(-0.0497202,0,0,0.0497202,24.714432,-21.620317)"/>
<path style="fill-rule:nonzero;fill:rgb(100%,100%,100%);fill-opacity:1;stroke-width:0.96;stroke-linecap:butt;stroke-linejoin:miter;stroke:rgb(0%,0%,0%);stroke-opacity:1;stroke-miterlimit:4;" d="M 130.173346 639.186359 L 130.173346 632.429799 C 127.816406 633.29401 125.695161 634.708174 124.988079 636.200902 C 124.045303 632.429799 122.395446 630.779941 120.2742 628.501566 C 118.231519 630.779941 116.817356 632.429799 115.953144 636.200902 C 115.167498 634.708174 113.046252 633.29401 110.689313 632.429799 L 110.689313 639.186359 Z M 130.173346 639.186359 " transform="matrix(-0.0497202,0,0,0.0497202,24.714432,-21.620317)"/>
<path style="fill-rule:nonzero;fill:rgb(100%,100%,100%);fill-opacity:1;stroke-width:0.96;stroke-linecap:butt;stroke-linejoin:miter;stroke:rgb(0%,0%,0%);stroke-opacity:1;stroke-miterlimit:4;" d="M 89.374287 669.276619 L 89.374287 675.483226 L 301.263142 675.483226 L 301.263142 669.276619 Z M 85.603184 675.483226 L 85.603184 683.575385 L 305.11281 683.575385 L 305.11281 675.483226 Z M 305.11281 683.575385 L 85.603184 683.653949 L 79.160883 683.575385 L 79.160883 694.181612 L 311.555111 694.181612 L 311.555111 683.575385 Z M 72.718582 694.260177 L 72.718582 706.751956 L 317.997412 706.751956 L 317.997412 694.260177 Z M 317.997412 706.751956 L 66.197716 706.751956 L 66.197716 719.243735 L 324.518278 719.243735 L 324.518278 706.751956 Z M 317.997412 706.751956 " transform="matrix(0.0497202,0,0,0.0497202,5.286761,-21.620317)"/>
<path style="fill-rule:nonzero;fill:rgb(100%,100%,100%);fill-opacity:1;stroke-width:1.045;stroke-linecap:butt;stroke-linejoin:miter;stroke:rgb(0%,0%,0%);stroke-opacity:1;stroke-miterlimit:4;" d="M 112.393729 669.276619 L 128.420917 669.276619 L 128.420917 719.243735 L 112.393729 719.243735 Z M 112.393729 669.276619 " transform="matrix(0.0497202,0,0,0.0497202,5.286761,-21.620317)"/>
<path style="fill-rule:nonzero;fill:rgb(100%,100%,100%);fill-opacity:1;stroke-width:1.043;stroke-linecap:butt;stroke-linejoin:miter;stroke:rgb(0%,0%,0%);stroke-opacity:1;stroke-miterlimit:4;" d="M 115.929138 669.276619 L 124.885508 669.276619 L 124.885508 719.243735 L 115.929138 719.243735 Z M 115.929138 669.276619 " transform="matrix(0.0497202,0,0,0.0497202,5.286761,-21.620317)"/>
<path style="fill-rule:nonzero;fill:rgb(100%,100%,100%);fill-opacity:1;stroke-width:1.045;stroke-linecap:butt;stroke-linejoin:miter;stroke:rgb(0%,0%,0%);stroke-opacity:1;stroke-miterlimit:4;" d="M 187.108709 669.276619 L 203.057332 669.276619 L 203.057332 719.243735 L 187.108709 719.243735 Z M 187.108709 669.276619 " transform="matrix(0.0497202,0,0,0.0497202,5.286761,-21.620317)"/>
<path style="fill-rule:nonzero;fill:rgb(100%,100%,100%);fill-opacity:1;stroke-width:1.043;stroke-linecap:butt;stroke-linejoin:miter;stroke:rgb(0%,0%,0%);stroke-opacity:1;stroke-miterlimit:4;" d="M 190.722682 669.276619 L 199.679052 669.276619 L 199.679052 719.243735 L 190.722682 719.243735 Z M 190.722682 669.276619 " transform="matrix(0.0497202,0,0,0.0497202,5.286761,-21.620317)"/>
<path style="fill-rule:nonzero;fill:rgb(100%,100%,100%);fill-opacity:1;stroke-width:1.045;stroke-linecap:butt;stroke-linejoin:miter;stroke:rgb(0%,0%,0%);stroke-opacity:1;stroke-miterlimit:4;" d="M 262.216512 669.276619 L 278.165135 669.276619 L 278.165135 719.243735 L 262.216512 719.243735 Z M 262.216512 669.276619 " transform="matrix(0.0497202,0,0,0.0497202,5.286761,-21.620317)"/>
<path style="fill-rule:nonzero;fill:rgb(100%,100%,100%);fill-opacity:1;stroke-width:1.043;stroke-linecap:butt;stroke-linejoin:miter;stroke:rgb(0%,0%,0%);stroke-opacity:1;stroke-miterlimit:4;" d="M 265.751921 669.276619 L 274.629726 669.276619 L 274.629726 719.243735 L 265.751921 719.243735 Z M 265.751921 669.276619 " transform="matrix(0.0497202,0,0,0.0497202,5.286761,-21.620317)"/>
<path style="fill:none;stroke-width:0.96;stroke-linecap:butt;stroke-linejoin:miter;stroke:rgb(0%,0%,0%);stroke-opacity:1;stroke-miterlimit:4;" d="M 98.959174 664.248481 L 291.992513 664.248481 M 115.772008 712.958563 L 125.042637 712.958563 M 115.772008 706.751956 L 125.042637 706.751956 M 115.772008 700.466784 L 125.042637 700.466784 M 115.772008 694.181612 L 125.042637 694.181612 M 115.772008 687.975005 L 125.042637 687.975005 M 115.772008 681.689833 L 125.042637 681.689833 M 115.772008 675.483226 L 125.042637 675.483226 M 190.801247 712.958563 L 199.364794 712.958563 M 190.801247 706.751956 L 199.364794 706.751956 M 190.801247 700.466784 L 199.364794 700.466784 M 190.801247 694.181612 L 199.364794 694.181612 M 190.801247 687.975005 L 199.364794 687.975005 M 190.801247 681.689833 L 199.364794 681.689833 M 190.801247 675.483226 L 199.364794 675.483226 M 265.594792 712.958563 L 274.786856 712.958563 M 265.594792 706.751956 L 274.786856 706.751956 M 265.594792 700.466784 L 274.786856 700.466784 M 265.594792 694.181612 L 274.786856 694.181612 M 265.594792 687.975005 L 274.786856 687.975005 M 265.594792 681.689833 L 274.786856 681.689833 M 265.594792 675.483226 L 274.786856 675.483226 " transform="matrix(0.0497202,0,0,0.0497202,5.286761,-21.620317)"/>
</g>
</svg>
