<svg width="480" height="420" viewBox="0 0 480 420" fill="none" xmlns="http://www.w3.org/2000/svg">
<path d="M480 347.104H0V347.344H480V347.104Z" fill="#024DC5"/>
<path d="M82.1568 356.243H50.3616V356.483H82.1568V356.243Z" fill="#024DC5"/>
<path d="M209.174 353.642H164.294V353.882H209.174V353.642Z" fill="#024DC5"/>
<path d="M126.71 363.664H108.288V363.904H126.71V363.664Z" fill="#024DC5"/>
<path d="M328.839 359.498H299.837V359.738H328.839V359.498Z" fill="#024DC5"/>
<path d="M355.93 359.498H337.382V359.738H355.93V359.498Z" fill="#024DC5"/>
<path d="M431.914 363.549H375.696V363.789H431.914V363.549Z" fill="#EBEBEB"/>
<path d="M227.52 304.288H42.1536C40.7015 304.286 39.3097 303.707 38.2838 302.679C37.2578 301.652 36.6816 300.259 36.6816 298.807V38.2339C36.6943 36.7901 37.2761 35.4096 38.3006 34.3922C39.3252 33.3748 40.7098 32.8028 42.1536 32.8003H227.52C228.974 32.8003 230.368 33.3778 231.396 34.4058C232.424 35.4338 233.002 36.8281 233.002 38.2819V298.807C233.002 300.26 232.424 301.655 231.396 302.683C230.368 303.711 228.974 304.288 227.52 304.288ZM42.1536 32.9923C40.7651 32.9948 39.4344 33.5482 38.4535 34.5309C37.4726 35.5136 36.9216 36.8454 36.9216 38.2339V298.807C36.9216 300.195 37.4726 301.527 38.4535 302.51C39.4344 303.492 40.7651 304.046 42.1536 304.048H227.52C228.909 304.046 230.241 303.493 231.224 302.51C232.206 301.528 232.759 300.196 232.762 298.807V38.2339C232.759 36.8445 232.206 35.5128 231.224 34.5303C230.241 33.5479 228.909 32.9948 227.52 32.9923H42.1536Z" fill="#024DC5"/>
<path d="M435.178 304.288H249.802C248.349 304.286 246.956 303.707 245.928 302.68C244.901 301.653 244.323 300.26 244.32 298.807V38.2339C244.335 36.7892 244.919 35.4087 245.945 34.3916C246.971 33.3745 248.357 32.8027 249.802 32.8003H435.178C436.62 32.8053 438.002 33.3785 439.024 34.3956C440.047 35.4127 440.627 36.7917 440.64 38.2339V298.807C440.64 300.257 440.065 301.649 439.041 302.676C438.017 303.703 436.628 304.283 435.178 304.288ZM249.802 32.9923C248.412 32.9948 247.081 33.5479 246.098 34.5303C245.116 35.5128 244.563 36.8445 244.56 38.2339V298.807C244.563 300.196 245.116 301.528 246.098 302.51C247.081 303.493 248.412 304.046 249.802 304.048H435.178C436.567 304.046 437.899 303.493 438.881 302.51C439.864 301.528 440.417 300.196 440.419 298.807V38.2339C440.417 36.8445 439.864 35.5128 438.881 34.5303C437.899 33.5479 436.567 32.9948 435.178 32.9923H249.802Z" fill="#024DC5"/>
<path d="M408.634 56.5027H335.366V332.003H408.634V56.5027Z" fill="#E6E6E6"/>
<path d="M413.107 56.5027H339.84V332.003H413.107V56.5027Z" fill="#F5F5F5"/>
<path d="M405.072 324.679V63.8274H347.875V324.679H405.072Z" fill="white"/>
<path d="M405.072 324.679V63.8274H401.693V324.679H405.072Z" fill="#E6E6E6"/>
<path d="M409.786 280.72H343.162V290.551H409.786V280.72Z" fill="#F5F5F5"/>
<path d="M409.786 76.7395H343.162V86.5699H409.786V76.7395Z" fill="#F5F5F5"/>
<path d="M134.4 56.5027H61.1328V332.003H134.4V56.5027Z" fill="#E6E6E6"/>
<path d="M138.874 56.5027H65.6064V332.003H138.874V56.5027Z" fill="#F5F5F5"/>
<path d="M130.838 324.679L130.838 63.8274H73.6416L73.6416 324.679H130.838Z" fill="white"/>
<path d="M130.838 324.679L130.838 63.8274H127.459L127.459 324.679H130.838Z" fill="#E6E6E6"/>
<path d="M135.552 280.72H68.928V290.551H135.552V280.72Z" fill="#F5F5F5"/>
<path d="M135.552 76.7395H68.928V86.5699H135.552V76.7395Z" fill="#F5F5F5"/>
<path d="M168.595 216.852L314.88 216.852V77.6516L168.595 77.6516L168.595 216.852Z" fill="#F5F5F5"/>
<path d="M168.595 77.6611H165.12V216.861H168.595V77.6611Z" fill="#F0F0F0"/>
<path d="M309.13 211.101V83.4211L174.365 83.4211V211.101H309.13Z" fill="#FAFAFA"/>
<path d="M174.355 146.781C218.794 141.655 263.242 151.898 307.68 146.781V144.218C263.242 149.335 218.794 139.101 174.355 144.218V146.781Z" fill="#F0F0F0"/>
<path d="M309.12 211.101V83.4211H307.68V211.101H309.12Z" fill="#F0F0F0"/>
<path d="M132.24 318.717C131.773 318.707 131.318 318.566 130.926 318.312C130.534 318.057 130.221 317.698 130.021 317.276C129.822 316.853 129.744 316.383 129.797 315.919C129.85 315.454 130.031 315.014 130.32 314.647C131.741 312.851 128.285 308.695 124.627 304.288C116.832 294.919 105.053 280.749 121.142 264.496C131.29 254.243 131.069 250 130.502 248.647C129.494 246.247 124.742 245.709 123.206 245.767C122.567 245.727 121.968 245.445 121.529 244.979C121.091 244.513 120.846 243.896 120.846 243.256C120.846 242.616 121.091 242 121.529 241.534C121.968 241.067 122.567 240.785 123.206 240.746C124.166 240.746 132.672 240.813 135.168 246.707C137.328 251.805 133.92 258.794 124.752 268.048C111.869 281.056 120.73 291.703 128.534 301.101C133.536 307.12 138.259 312.794 134.294 317.786C134.049 318.091 133.735 318.335 133.378 318.497C133.021 318.659 132.631 318.734 132.24 318.717Z" fill="#E0E0E0"/>
<path d="M95.9136 296.09H149.472L137.616 347.104H107.779L95.9136 296.09Z" fill="#F5F5F5"/>
<path d="M95.3569 298.375H150.077C150.682 298.372 151.262 298.131 151.69 297.703C152.118 297.275 152.359 296.695 152.362 296.09C152.359 295.486 152.117 294.907 151.689 294.48C151.261 294.054 150.681 293.815 150.077 293.815H95.3569C94.761 293.827 94.1935 294.072 93.7756 294.497C93.3577 294.922 93.1225 295.494 93.1201 296.09C93.12 296.688 93.3541 297.262 93.7723 297.689C94.1904 298.116 94.7593 298.362 95.3569 298.375Z" fill="#EBEBEB"/>
<path d="M141.514 242.368L90.9121 259.082C90.9121 259.082 72.5761 246.698 85.8913 241.13C79.5649 230.33 78.7585 209.258 99.1393 203.152C119.52 197.047 118.08 226.807 118.08 226.807C118.08 226.807 143.213 200.224 142.08 231.799C146.88 230.484 167.165 235.293 141.514 242.368Z" fill="#E0E0E0"/>
<path d="M99.2832 265.245H160.646C160.646 265.245 176.832 253.821 159.878 254.397C163.248 239.824 153.763 223.86 132.346 223.245C110.928 222.631 118.464 246.391 118.464 246.391C118.464 246.391 82.4928 237.818 93.3792 255.52C75.552 256.394 84.768 260.964 99.2832 265.245Z" fill="#E6E6E6"/>
<path d="M148.282 268.547L100.07 270.285C98.8121 270.3 97.5707 269.995 96.4624 269.399C95.3542 268.803 94.4155 267.935 93.7344 266.877C91.9104 264.295 91.4304 261.117 99.1392 260.157C96.672 252.535 102.125 239.258 122.054 238.231C141.984 237.203 131.99 255.626 131.99 255.626C131.99 255.626 162.144 242.464 151.853 262.039C156.48 261.847 173.174 267.655 148.282 268.547Z" fill="#E0E0E0"/>
<path d="M240 390.458C342.799 390.458 426.135 385.592 426.135 379.59C426.135 373.589 342.799 368.723 240 368.723C137.201 368.723 53.8657 373.589 53.8657 379.59C53.8657 385.592 137.201 390.458 240 390.458Z" fill="#EBF4FF"/>
<path d="M152.554 113.651C144.749 112.557 138.029 133.725 144.749 138.842C151.469 143.959 166.483 146.714 179.894 140.762C189.658 136.451 187.882 126.611 181.094 115.648C175.622 106.845 163.613 97.5234 152.554 113.651Z" fill="#263238"/>
<path d="M186.336 160.144C186.778 165.453 187.104 170.781 187.392 176.099C187.68 181.418 187.92 186.755 188.131 192.083L187.978 191.258C187.913 191.025 187.798 190.808 187.642 190.624C187.584 190.566 187.642 190.624 187.642 190.624C187.841 190.821 188.056 191 188.285 191.162C188.96 191.636 189.666 192.066 190.397 192.448C191.962 193.274 193.68 194.08 195.427 194.819C197.175 195.558 198.96 196.307 200.755 197.037L206.16 199.197L205.114 203.344C203.098 203.094 201.149 202.73 199.171 202.384C197.194 202.038 195.245 201.53 193.287 201.002C191.279 200.469 189.302 199.828 187.363 199.082C186.299 198.666 185.266 198.175 184.272 197.613C183.655 197.275 183.073 196.876 182.535 196.422C182.185 196.113 181.863 195.772 181.575 195.405C181.1 194.842 180.744 194.189 180.528 193.485L180.432 193.178L180.375 192.659C179.847 187.35 179.319 182.032 178.906 176.714C178.493 171.395 178.042 166.067 177.744 160.739L186.336 160.144Z" fill="#ED93A4"/>
<path d="M185.731 153.002C187.594 157.063 188.611 167.92 188.851 183.463C185.417 184.262 182.216 185.849 179.501 188.099L175.296 163.687L177.629 159.626C178.25 157.89 179.333 156.356 180.76 155.189C182.188 154.021 183.906 153.265 185.731 153.002Z" fill="#407BFF"/>
<path opacity="0.1" d="M185.731 153.002C187.594 157.063 188.611 167.92 188.851 183.463C185.417 184.262 182.216 185.849 179.501 188.099L175.296 163.687L177.629 159.626C178.25 157.89 179.333 156.356 180.76 155.189C182.188 154.021 183.906 153.265 185.731 153.002Z" fill="white"/>
<path d="M204.576 198.65L212.573 198.227L207.706 204.659C207.706 204.659 202.666 203.93 201.542 200.819L204.576 198.65Z" fill="#ED93A4"/>
<path d="M216.25 204.17L214.877 205.792C214.528 206.208 214.055 206.499 213.528 206.624C213 206.749 212.446 206.699 211.949 206.484L207.706 204.66L212.573 198.228L215.77 200.474C216.058 200.674 216.301 200.933 216.483 201.233C216.666 201.533 216.783 201.867 216.829 202.216C216.874 202.564 216.846 202.917 216.746 203.254C216.646 203.591 216.477 203.903 216.25 204.17Z" fill="#ED93A4"/>
<path d="M185.357 155.565C185.491 161.325 184.685 173.277 180.634 198.141H148.416C148.954 185.027 149.597 176.81 143.328 149.891C147.633 149.015 151.997 148.456 156.384 148.221C161.255 147.875 166.144 147.875 171.015 148.221C174.173 148.509 177.533 149.018 180.106 149.459C181.554 149.709 182.87 150.455 183.828 151.569C184.786 152.683 185.327 154.096 185.357 155.565Z" fill="#263238"/>
<path d="M161.03 164.647C161 164.648 160.969 164.643 160.941 164.632C160.913 164.62 160.888 164.602 160.867 164.579C158.381 161.767 153.917 154.394 153.859 149.69C153.859 149.631 153.883 149.575 153.924 149.534C153.965 149.492 154.021 149.469 154.08 149.469C154.11 149.468 154.14 149.472 154.167 149.483C154.195 149.493 154.221 149.509 154.242 149.53C154.264 149.551 154.281 149.576 154.293 149.603C154.304 149.63 154.31 149.66 154.31 149.69C154.31 153.799 158.237 160.807 161.03 164.09C162.542 161.998 164.418 160.196 166.57 158.771C166.594 158.755 166.622 158.744 166.65 158.739C166.679 158.734 166.709 158.734 166.737 158.741C166.766 158.747 166.793 158.759 166.817 158.776C166.841 158.792 166.861 158.814 166.877 158.839C166.908 158.888 166.919 158.947 166.908 159.003C166.897 159.06 166.866 159.111 166.819 159.146C164.641 160.595 162.753 162.438 161.251 164.579C161.235 164.611 161.21 164.638 161.18 164.657C161.149 164.675 161.114 164.685 161.078 164.685L161.03 164.647Z" fill="white"/>
<path d="M174.317 164.647C174.281 164.646 174.247 164.636 174.216 164.617C174.186 164.598 174.161 164.572 174.144 164.541C172.648 162.398 170.762 160.555 168.586 159.107C168.536 159.076 168.501 159.025 168.489 158.968C168.476 158.91 168.487 158.85 168.519 158.8C168.55 158.751 168.601 158.716 168.658 158.703C168.716 158.69 168.776 158.701 168.826 158.733C170.977 160.158 172.854 161.959 174.365 164.051C176.851 160.845 176.131 153.491 174.471 149.555C174.458 149.528 174.451 149.499 174.45 149.469C174.449 149.439 174.454 149.41 174.465 149.382C174.475 149.354 174.492 149.329 174.512 149.307C174.533 149.286 174.558 149.269 174.586 149.258C174.642 149.235 174.704 149.236 174.76 149.259C174.816 149.283 174.86 149.327 174.883 149.383C176.631 153.568 177.341 161.373 174.509 164.579C174.484 164.605 174.454 164.624 174.421 164.635C174.387 164.647 174.352 164.651 174.317 164.647Z" fill="white"/>
<path d="M157.834 131.747C158.794 136.451 159.677 145.082 156.384 148.221C159.055 152.541 163.028 155.902 167.731 157.821C174.029 153.875 171.014 148.221 171.014 148.221C165.763 146.963 165.907 143.075 166.819 139.418L157.834 131.747Z" fill="#ED93A4"/>
<path opacity="0.2" d="M161.501 134.877L166.81 139.408C166.591 140.262 166.44 141.132 166.359 142.01C164.362 141.722 161.607 139.514 161.386 137.411C161.268 136.567 161.307 135.708 161.501 134.877Z" fill="black"/>
<path d="M152.871 123.107C154.714 130.787 155.338 134.042 159.946 137.325C166.887 142.259 175.882 138.285 176.362 130.259C176.794 123.011 173.703 111.712 165.581 109.975C163.792 109.583 161.933 109.655 160.18 110.184C158.427 110.713 156.838 111.682 155.565 112.998C154.291 114.313 153.375 115.933 152.904 117.702C152.432 119.472 152.421 121.332 152.871 123.107Z" fill="#ED93A4"/>
<path d="M153.082 114.803C157.882 117.482 174.154 116.522 171.734 111.635C169.315 106.749 158.995 107.959 153.082 114.803Z" fill="#263238"/>
<path d="M156.682 114.563C160.877 120.525 159.677 128.743 150.317 128.771C140.957 128.8 147.523 112.48 156.682 114.563Z" fill="#263238"/>
<path d="M163.613 128.8L172.253 129.962C172.253 129.962 171.149 132.448 167.107 131.882C163.767 131.315 163.613 128.8 163.613 128.8Z" fill="white"/>
<path d="M180.634 198.141C180.634 198.141 177.917 257.882 177.398 282.074C176.851 307.245 176.611 366.016 176.611 366.016H170.266C170.266 366.016 160.128 317.171 163.133 282.074C158.592 255.126 155.53 198.141 155.53 198.141H180.634Z" fill="#ED93A4"/>
<path d="M172.214 198.141C172.214 198.141 158.774 260.358 152.342 283.677C147.542 301.178 114.096 350.954 113.856 352.797L108.797 350.013C108.797 350.013 128.342 295.562 137.05 280.096C137.05 252.765 148.416 198.179 148.416 198.179L172.214 198.141Z" fill="#ED93A4"/>
<path d="M166.128 123.04C166.243 123.674 166.666 124.125 167.088 124C167.51 123.875 167.741 123.357 167.635 122.733C167.53 122.109 167.098 121.648 166.675 121.725C166.253 121.802 166.022 122.407 166.128 123.04Z" fill="#263238"/>
<path d="M173.251 121.773C173.367 122.397 173.789 122.858 174.211 122.733C174.634 122.608 174.864 122.09 174.759 121.456C174.653 120.823 174.221 120.381 173.799 120.448C173.376 120.515 173.146 121.12 173.251 121.773Z" fill="#263238"/>
<path d="M173.626 120.563L175.056 119.863C175.056 119.863 174.49 121.178 173.626 120.563Z" fill="#263238"/>
<path d="M170.947 122.906C171.767 124.241 172.765 125.459 173.914 126.525C173.631 126.811 173.29 127.032 172.914 127.172C172.537 127.313 172.135 127.371 171.734 127.341L170.947 122.906Z" fill="#DE657B"/>
<path d="M151.795 127.475C152.384 128.881 153.506 129.996 154.915 130.576C156.787 131.325 157.949 129.703 157.613 127.821C157.306 126.131 155.971 123.693 154.003 123.741C153.573 123.76 153.155 123.887 152.786 124.109C152.417 124.33 152.109 124.64 151.89 125.011C151.67 125.382 151.547 125.801 151.531 126.231C151.514 126.662 151.605 127.089 151.795 127.475Z" fill="#ED93A4"/>
<path d="M162.845 120.016C162.943 119.989 163.028 119.927 163.085 119.843C163.321 119.434 163.652 119.086 164.049 118.829C164.446 118.572 164.899 118.413 165.37 118.365C165.468 118.36 165.561 118.317 165.629 118.246C165.697 118.174 165.735 118.08 165.735 117.981C165.733 117.931 165.722 117.882 165.702 117.836C165.681 117.791 165.651 117.75 165.615 117.716C165.578 117.682 165.535 117.655 165.488 117.638C165.441 117.621 165.391 117.614 165.341 117.616C164.749 117.667 164.177 117.86 163.676 118.18C163.174 118.499 162.758 118.935 162.461 119.45C162.434 119.491 162.416 119.538 162.408 119.586C162.399 119.635 162.4 119.685 162.411 119.733C162.421 119.781 162.442 119.827 162.47 119.867C162.498 119.907 162.534 119.942 162.576 119.968C162.658 120.014 162.753 120.031 162.845 120.016Z" fill="#263238"/>
<path d="M174.72 118.01C174.767 118.006 174.813 117.991 174.854 117.968C174.896 117.945 174.932 117.913 174.96 117.875C174.991 117.837 175.014 117.793 175.028 117.745C175.042 117.698 175.046 117.648 175.041 117.599C175.036 117.55 175.021 117.503 174.997 117.459C174.973 117.416 174.941 117.378 174.902 117.347C174.444 116.965 173.9 116.698 173.318 116.567C172.735 116.437 172.13 116.448 171.552 116.598C171.47 116.64 171.407 116.71 171.372 116.795C171.338 116.88 171.334 116.974 171.363 117.061C171.392 117.148 171.452 117.222 171.53 117.269C171.609 117.316 171.702 117.334 171.792 117.319C172.249 117.205 172.727 117.201 173.186 117.308C173.645 117.415 174.072 117.629 174.432 117.933C174.515 117.994 174.618 118.022 174.72 118.01Z" fill="#263238"/>
<path d="M166.502 121.831L167.933 121.12C167.933 121.12 167.366 122.445 166.502 121.831Z" fill="#263238"/>
<path d="M181.095 202.432L179.655 282.112C179.655 282.112 169.642 283.907 157.843 277.811C150.842 274.169 142.942 272.609 135.082 273.319C132.499 225.05 140.938 209.872 147.408 202.471L181.095 202.432Z" fill="#263238"/>
<path opacity="0.2" d="M174.96 252.371L157.095 239.152L151.267 228.391L174.96 252.371Z" fill="black"/>
<path d="M182.467 193.226L181.277 204.4C172.733 205.427 160.31 205.053 147.11 204.4L148.157 193.226C160.579 193.648 172.397 193.802 182.467 193.226Z" fill="white"/>
<path d="M155.52 147.606C155.52 147.606 155.77 210.006 152.794 225.098C147.879 220.48 141.091 209.738 141.091 209.738C141.091 209.738 144.931 197.555 145.997 194.646C145.402 190.259 140.487 153.856 141.197 150.064C146.141 148.346 155.52 147.606 155.52 147.606Z" fill="#407BFF"/>
<path opacity="0.2" d="M155.52 147.606C155.52 147.606 155.77 210.006 152.794 225.098C147.879 220.48 141.091 209.738 141.091 209.738C141.091 209.738 144.931 197.555 145.997 194.646C145.402 190.259 140.487 153.856 141.197 150.064C146.141 148.346 155.52 147.606 155.52 147.606Z" fill="white"/>
<path d="M144.874 159.578C142.416 162.909 139.939 166.403 137.578 169.869C135.216 173.334 132.912 176.858 130.858 180.429C130.349 181.322 129.898 182.215 129.408 183.107C129.159 183.549 128.938 184 128.736 184.442L128.151 185.661C128.151 185.517 128.151 185.334 128.151 185.334C128.151 185.334 128.151 185.478 128.151 185.699C128.446 186.354 128.841 186.96 129.322 187.494C130.6 188.941 132.007 190.269 133.526 191.459C135.101 192.736 136.819 194.013 138.471 195.184L136.618 199.024C134.463 198.3 132.364 197.417 130.339 196.384C128.203 195.309 126.202 193.985 124.378 192.438C123.277 191.503 122.337 190.394 121.594 189.155C121.101 188.336 120.756 187.435 120.576 186.496C120.357 185.327 120.439 184.121 120.816 182.992L120.893 182.781V182.666L120.979 182.454L121.143 182.051L121.469 181.245C121.68 180.688 121.901 180.16 122.141 179.642C122.611 178.595 123.101 177.558 123.61 176.57C125.635 172.608 127.878 168.762 130.33 165.05C131.52 163.206 132.759 161.392 134.026 159.606C135.293 157.821 136.57 156.064 137.962 154.288L144.874 159.578Z" fill="#ED93A4"/>
<path d="M137.501 194.781L146.054 194.138L141.331 200.675C141.331 200.675 136.272 200.051 135.082 196.979L137.501 194.781Z" fill="#ED93A4"/>
<path d="M149.76 200.099L148.512 201.635C148.166 202.065 147.693 202.376 147.161 202.522C146.628 202.669 146.063 202.644 145.546 202.451L141.312 200.675L146.035 194.138L149.175 196.24C149.479 196.445 149.738 196.711 149.934 197.021C150.13 197.331 150.26 197.678 150.315 198.041C150.37 198.404 150.349 198.774 150.254 199.128C150.158 199.483 149.99 199.813 149.76 200.099Z" fill="#ED93A4"/>
<path d="M173.587 147.606C173.587 147.606 177.197 172.413 177.85 192.266C178.243 204.179 176.074 219.338 176.323 225.098C179.473 221.954 181.909 218.169 183.466 214C183.466 214 184.925 208.797 183.12 194.646C183.61 191.075 185.77 166.557 186.192 155.526C186.25 154.073 185.803 152.645 184.928 151.484C184.054 150.322 182.804 149.498 181.392 149.152C177.379 148.202 173.587 147.606 173.587 147.606Z" fill="#407BFF"/>
<g opacity="0.2">
<path opacity="0.2" d="M173.587 147.606C173.587 147.606 177.197 172.413 177.85 192.266C178.243 204.179 176.074 219.338 176.323 225.098C179.473 221.954 181.909 218.169 183.466 214C183.466 214 184.925 208.797 183.12 194.646C183.61 191.075 185.77 166.557 186.192 155.526C186.25 154.073 185.803 152.645 184.928 151.484C184.054 150.322 182.804 149.498 181.392 149.152C177.379 148.202 173.587 147.606 173.587 147.606Z" fill="white"/>
</g>
<path d="M168.231 163.523C167.885 163.523 167.52 163.063 167.376 162.391C167.223 161.68 167.376 161.075 167.76 160.999C168.144 160.922 168.567 161.411 168.72 162.122C168.834 162.519 168.793 162.944 168.605 163.312C168.536 163.418 168.43 163.493 168.307 163.523H168.231ZM167.597 162.343C167.731 162.957 168.067 163.303 168.269 163.303C168.301 163.295 168.331 163.281 168.358 163.261C168.384 163.241 168.406 163.216 168.423 163.187C168.566 162.868 168.594 162.508 168.499 162.17C168.375 161.565 168.029 161.21 167.808 161.21C167.587 161.21 167.463 161.728 167.597 162.333V162.343Z" fill="white"/>
<path d="M169.248 170.262C168.874 170.262 168.547 169.754 168.47 169.062C168.394 168.371 168.614 167.776 168.998 167.728C169.063 167.724 169.128 167.733 169.189 167.754C169.25 167.776 169.306 167.809 169.354 167.853C169.638 168.142 169.809 168.523 169.834 168.928C169.901 169.329 169.815 169.74 169.594 170.08C169.556 170.13 169.508 170.172 169.454 170.203C169.399 170.235 169.339 170.255 169.277 170.262H169.248ZM169.046 167.949C168.826 167.949 168.643 168.41 168.71 169.024C168.778 169.638 169.046 169.984 169.267 169.984C169.3 169.981 169.331 169.97 169.359 169.954C169.387 169.937 169.412 169.915 169.43 169.888C169.607 169.601 169.675 169.261 169.622 168.928C169.613 168.569 169.47 168.226 169.219 167.968C169.165 167.943 169.105 167.937 169.046 167.949Z" fill="white"/>
<path d="M169.555 176.963C169.171 176.963 168.883 176.407 168.874 175.706C168.874 174.995 169.152 174.458 169.536 174.448C169.6 174.449 169.663 174.463 169.72 174.489C169.778 174.516 169.83 174.554 169.872 174.602C170.131 174.91 170.265 175.304 170.246 175.706C170.27 176.098 170.154 176.485 169.92 176.8C169.873 176.851 169.817 176.891 169.754 176.919C169.692 176.947 169.624 176.962 169.555 176.963ZM169.085 175.706C169.085 176.311 169.334 176.733 169.555 176.743C169.623 176.734 169.685 176.699 169.728 176.647C169.94 176.374 170.04 176.03 170.006 175.687C170.032 175.341 169.926 174.998 169.709 174.727C169.687 174.701 169.661 174.681 169.631 174.666C169.601 174.651 169.569 174.642 169.536 174.64C169.325 174.64 169.094 175.063 169.094 175.667L169.085 175.706Z" fill="white"/>
<path d="M169.191 183.568H169.133C168.759 183.52 168.519 182.963 168.586 182.272C168.653 181.571 168.999 181.063 169.373 181.101C169.501 181.119 169.617 181.184 169.699 181.283C169.914 181.616 170.002 182.014 169.949 182.407C169.93 182.8 169.766 183.173 169.488 183.453C169.405 183.523 169.3 183.564 169.191 183.568ZM168.807 182.291C168.749 182.887 168.951 183.319 169.162 183.347C169.197 183.35 169.232 183.345 169.265 183.333C169.298 183.322 169.328 183.304 169.354 183.28C169.581 183.036 169.713 182.72 169.728 182.387C169.772 182.054 169.701 181.715 169.527 181.427C169.484 181.372 169.422 181.335 169.354 181.322C169.143 181.322 168.883 181.706 168.826 182.282L168.807 182.291Z" fill="white"/>
<path d="M168.605 190.058C168.221 190.01 167.991 189.453 168.058 188.762C168.115 188.09 168.442 187.6 168.807 187.6C168.87 187.607 168.932 187.627 168.988 187.658C169.044 187.69 169.093 187.732 169.133 187.782C169.35 188.11 169.436 188.508 169.373 188.896C169.362 189.287 169.2 189.658 168.922 189.933C168.834 190.011 168.722 190.055 168.605 190.058ZM168.759 187.831C168.547 187.831 168.288 188.205 168.231 188.79C168.173 189.386 168.365 189.818 168.586 189.846C168.657 189.846 168.726 189.819 168.778 189.77C169.003 189.529 169.132 189.215 169.143 188.886C169.199 188.554 169.13 188.212 168.951 187.926C168.931 187.898 168.905 187.874 168.875 187.855C168.846 187.837 168.812 187.825 168.778 187.821L168.759 187.831Z" fill="white"/>
<path opacity="0.2" d="M144.749 163.831C144.405 166.135 143.79 168.391 142.915 170.551C142.723 168.909 142.531 167.267 142.359 165.693L144.749 163.831Z" fill="black"/>
<path d="M141.12 150.064C137.549 152.743 130.378 163.783 122.784 177.338C125.267 179.392 127.635 181.581 129.879 183.895L145.239 164.426L145.123 159.741C145.402 157.916 145.177 156.05 144.471 154.344C143.765 152.639 142.607 151.159 141.12 150.064Z" fill="#407BFF"/>
<path opacity="0.2" d="M141.12 150.064C137.549 152.743 130.378 163.783 122.784 177.338C125.267 179.392 127.635 181.581 129.879 183.895L145.239 164.426L145.123 159.741C145.402 157.916 145.177 156.05 144.471 154.344C143.765 152.639 142.607 151.159 141.12 150.064Z" fill="white"/>
<path d="M176.64 360.237C177.763 369.645 183.763 376.922 183.763 376.922L174 374.416L169.546 367.418L170.506 365.574L176.64 360.237Z" fill="#ED93A4"/>
<path d="M169.152 365.047C168.77 365.859 168.586 366.751 168.615 367.648C168.672 370.903 169.037 379.552 169.037 379.552H169.805C169.796 376.891 169.931 374.231 170.208 371.584C170.583 369.434 172.128 371.978 172.954 374.407C173.779 376.835 177.226 379.437 182.189 379.552C188.007 379.696 190.368 379.437 188.679 378.026C186.989 376.615 183.13 375.712 183.13 375.712C181.551 375.669 180.011 375.213 178.663 374.39C177.316 373.566 176.208 372.403 175.45 371.018C173.722 367.898 171.61 364.797 170.179 364.067C169.944 364.14 169.729 364.266 169.551 364.436C169.372 364.606 169.236 364.815 169.152 365.047Z" fill="#263238"/>
<path d="M114.922 350.762C112.243 357.357 111.936 367.351 111.936 367.351L105.6 358.029L106.829 349.831L108.749 349.082L114.922 350.762Z" fill="#ED93A4"/>
<path d="M108.096 347.786C107.277 348.144 106.556 348.694 105.994 349.389C103.891 351.885 98.4961 358.653 98.4961 358.653L99.0721 359.152C100.815 357.135 102.664 355.213 104.611 353.392C106.301 352.019 105.782 354.938 104.822 357.328C103.862 359.719 104.746 363.923 108.413 367.274C112.704 371.2 114.653 372.554 114.307 370.384C113.962 368.215 111.648 364.96 111.648 364.96C110.494 363.892 109.639 362.541 109.168 361.04C108.697 359.54 108.625 357.943 108.96 356.407C109.699 352.912 110.16 349.197 109.546 347.699C109.314 347.599 109.062 347.555 108.811 347.57C108.559 347.585 108.314 347.659 108.096 347.786Z" fill="#263238"/>
<path d="M214.08 204.285H363.062C367.213 204.349 371.191 205.958 374.218 208.799C377.245 211.639 379.103 215.507 379.43 219.645L385.286 311.171C385.433 313.145 385.168 315.127 384.508 316.993C383.849 318.859 382.81 320.567 381.457 322.011C380.103 323.455 378.465 324.602 376.646 325.38C374.826 326.158 372.865 326.55 370.886 326.531H221.856C217.714 326.454 213.75 324.838 210.733 321.999C207.717 319.16 205.864 315.301 205.536 311.171L199.68 219.664C199.53 217.689 199.791 215.704 200.449 213.835C201.106 211.966 202.145 210.255 203.499 208.809C204.853 207.362 206.492 206.214 208.314 205.435C210.136 204.656 212.099 204.265 214.08 204.285Z" fill="#407BFF"/>
<path opacity="0.3" d="M214.08 204.285H363.062C367.213 204.349 371.191 205.958 374.218 208.799C377.245 211.639 379.103 215.507 379.43 219.645L385.286 311.171C385.433 313.145 385.168 315.127 384.508 316.993C383.849 318.859 382.81 320.567 381.457 322.011C380.103 323.455 378.465 324.602 376.646 325.38C374.826 326.158 372.865 326.55 370.886 326.531H221.856C217.714 326.454 213.75 324.838 210.733 321.999C207.717 319.16 205.864 315.301 205.536 311.171L199.68 219.664C199.53 217.689 199.791 215.704 200.449 213.835C201.106 211.966 202.145 210.255 203.499 208.809C204.853 207.362 206.492 206.214 208.314 205.435C210.136 204.656 212.099 204.265 214.08 204.285Z" fill="white"/>
<path d="M221.866 326.56H370.877C374.534 326.593 378.064 325.218 380.736 322.72L291.629 252.448L211.488 322.72C214.385 325.185 218.061 326.546 221.866 326.56Z" fill="#407BFF"/>
<path opacity="0.5" d="M221.866 326.56H370.877C374.534 326.593 378.064 325.218 380.736 322.72L291.629 252.448L211.488 322.72C214.385 325.185 218.061 326.546 221.866 326.56Z" fill="white"/>
<path d="M293.05 274.72L370.973 206.397C368.567 205.008 365.84 204.274 363.062 204.266H214.08C211.371 204.247 208.712 204.985 206.4 206.397L293.05 274.72Z" fill="#407BFF"/>
<path d="M346.656 204.64L341.462 123.328C341.299 121.101 340.306 119.016 338.679 117.485C337.053 115.955 334.911 115.09 332.678 115.062H216.518C218.752 115.092 220.893 115.957 222.521 117.487C224.148 119.017 225.144 121.101 225.312 123.328L230.467 203.968" fill="white"/>
<path d="M346.656 205.821C346.348 205.821 346.051 205.705 345.827 205.494C345.602 205.284 345.466 204.995 345.446 204.688L340.253 123.376C340.113 121.455 339.257 119.657 337.854 118.338C336.451 117.018 334.604 116.274 332.678 116.253H222.97C223.995 117.119 224.837 118.182 225.446 119.379C226.054 120.576 226.417 121.883 226.512 123.222L231.667 203.862C231.688 204.028 231.675 204.195 231.628 204.355C231.582 204.515 231.503 204.664 231.397 204.792C231.291 204.92 231.16 205.026 231.011 205.101C230.863 205.177 230.701 205.221 230.535 205.232C230.368 205.242 230.202 205.219 230.045 205.162C229.888 205.106 229.745 205.018 229.623 204.904C229.502 204.79 229.405 204.653 229.339 204.5C229.273 204.347 229.239 204.183 229.238 204.016L224.093 123.376C223.953 121.454 223.096 119.654 221.691 118.334C220.286 117.015 218.436 116.272 216.509 116.253C216.205 116.226 215.923 116.086 215.717 115.861C215.512 115.637 215.398 115.343 215.398 115.038C215.398 114.734 215.512 114.44 215.717 114.215C215.923 113.991 216.205 113.851 216.509 113.824H332.669C335.217 113.846 337.665 114.824 339.526 116.564C341.388 118.305 342.528 120.681 342.72 123.222L347.923 204.534C347.942 204.856 347.832 205.172 347.618 205.413C347.403 205.655 347.103 205.801 346.781 205.821H346.656Z" fill="#407BFF"/>
<path d="M216.509 115.034C215.444 115.023 214.389 115.233 213.41 115.651C212.431 116.07 211.55 116.687 210.822 117.465C210.094 118.242 209.536 119.162 209.183 120.166C208.83 121.171 208.69 122.238 208.771 123.299H225.302C225.135 121.072 224.139 118.988 222.511 117.458C220.884 115.928 218.742 115.063 216.509 115.034Z" fill="#407BFF"/>
<path d="M225.302 124.518H208.771C208.462 124.519 208.164 124.401 207.939 124.188C207.714 123.976 207.579 123.685 207.561 123.376C207.467 122.149 207.629 120.915 208.037 119.754C208.445 118.592 209.09 117.528 209.932 116.63C210.773 115.731 211.793 115.018 212.925 114.535C214.057 114.052 215.278 113.81 216.509 113.824C219.056 113.848 221.503 114.827 223.364 116.567C225.225 118.307 226.365 120.682 226.56 123.222C226.569 123.389 226.546 123.555 226.489 123.712C226.433 123.868 226.346 124.012 226.233 124.134C226.113 124.26 225.969 124.359 225.808 124.425C225.648 124.491 225.476 124.523 225.302 124.518ZM210 122.08H223.891C223.482 120.426 222.535 118.955 221.199 117.898C219.862 116.842 218.212 116.26 216.509 116.243C214.887 116.212 213.313 116.798 212.105 117.881C210.898 118.964 210.145 120.464 210 122.08Z" fill="#407BFF"/>
<path d="M332.678 115.034H216.518C218.752 115.063 220.893 115.928 222.521 117.458C224.148 118.988 225.144 121.072 225.312 123.299L231.907 226.509L293.05 274.72L348.096 227.142L341.462 123.28C341.294 121.056 340.299 118.976 338.673 117.449C337.047 115.923 334.908 115.061 332.678 115.034Z" fill="white"/>
<path opacity="0.3" d="M231.898 226.509L293.04 274.739L348.096 227.162L288.682 266.397L231.898 226.509Z" fill="#407BFF"/>
<path opacity="0.3" d="M335.501 180.352H238.55L238.061 172.797H335.021L335.501 180.352Z" fill="#407BFF"/>
<path opacity="0.3" d="M315.533 203.766H240.038L239.558 196.211H315.053L315.533 203.766Z" fill="#407BFF"/>
<path opacity="0.3" d="M338.496 227.181H281.51L281.03 219.616H338.016L338.496 227.181Z" fill="#407BFF"/>
<path opacity="0.3" d="M241.536 227.181H272.045L271.555 219.616H241.056L241.536 227.181Z" fill="#407BFF"/>
<path d="M308.745 63.3569H307.785L307.354 57.1169H308.314L308.745 63.3569Z" fill="#407BFF"/>
<path d="M307.987 52.317H307.027L306.067 39.0882C305.821 35.6434 304.558 32.349 302.438 29.6226L303.187 29.0754C305.427 31.961 306.763 35.4448 307.027 39.0882L307.987 52.317Z" fill="#407BFF"/>
<path d="M191.798 24.9089H288.538C292.373 24.9738 296.048 26.46 298.85 29.0796C301.652 31.6992 303.383 35.2657 303.705 39.0881L307.113 88.3073C307.266 90.1256 307.037 91.9557 306.441 93.6802C305.845 95.4048 304.895 96.9857 303.652 98.3217C302.409 99.6576 300.901 100.719 299.224 101.438C297.547 102.157 295.738 102.517 293.914 102.496H286.761L288.01 120.439L268.8 102.496H197.174C193.338 102.429 189.663 100.941 186.861 98.3195C184.059 95.6983 182.329 92.1307 182.006 88.3073L178.56 39.0881C178.41 37.2677 178.642 35.436 179.242 33.7106C179.841 31.9852 180.795 30.4041 182.041 29.069C183.288 27.7339 184.8 26.6741 186.48 25.9577C188.16 25.2412 189.972 24.884 191.798 24.9089Z" fill="#407BFF"/>
<path d="M217.286 61.1298H217.469C216.517 61.1161 215.598 60.7774 214.864 60.1698C214.131 59.5622 213.627 58.7221 213.437 57.789C213.39 57.2358 213.459 56.6789 213.64 56.1541C213.821 55.6293 214.11 55.1481 214.488 54.7413C214.865 54.3346 215.324 54.0113 215.834 53.7922C216.344 53.573 216.894 53.463 217.45 53.469H218.88L234.48 52.0002C233.851 49.3105 233.383 46.5856 233.078 43.8402C232.627 39.3186 235.229 33.741 239.539 35.7378C241.277 36.5442 240.653 42.1602 241.622 44.3778C242.592 46.5954 250.79 53.1522 253.286 57.8178C253.956 58.084 254.536 58.5331 254.962 59.1136C255.388 59.6942 255.643 60.3828 255.696 61.101L256.723 75.9138C256.803 76.9586 256.667 78.0087 256.325 78.9993C255.984 79.9898 255.443 80.9 254.736 81.6738C254.013 82.4349 253.142 83.0397 252.176 83.4508C251.21 83.8619 250.17 84.0707 249.12 84.0642H223.43C222.537 84.0679 221.664 83.7923 220.934 83.276C220.204 82.7597 219.654 82.0284 219.36 81.1842C219.17 80.6454 219.113 80.0687 219.193 79.5032C219.274 78.9376 219.489 78.3997 219.822 77.9353C220.155 77.4708 220.594 77.0934 221.104 76.835C221.613 76.5767 222.178 76.4451 222.749 76.4514H219.466C218.563 76.4379 217.698 76.0895 217.038 75.4739C216.378 74.8583 215.971 74.0194 215.894 73.1202C215.777 72.5987 215.779 72.0574 215.901 71.5369C216.022 71.0164 216.26 70.5301 216.596 70.1145C216.932 69.6989 217.358 69.3648 217.842 69.1372C218.325 68.9096 218.854 68.7944 219.389 68.8002H217.642C216.63 68.7839 215.66 68.4012 214.909 67.7232C214.159 67.0453 213.68 66.1181 213.562 65.1138C213.511 64.6 213.57 64.0814 213.736 63.5925C213.901 63.1035 214.17 62.6556 214.522 62.2785C214.875 61.9014 215.304 61.6039 215.78 61.4058C216.257 61.2077 216.77 61.1136 217.286 61.1298Z" fill="white"/>
<path d="M263.376 84.093H268.176C268.545 84.0972 268.912 84.0239 269.251 83.8776C269.59 83.7314 269.895 83.5156 270.146 83.2441C270.396 82.9727 270.587 82.6516 270.706 82.3018C270.825 81.9519 270.869 81.581 270.835 81.213L269.347 59.7378C269.287 58.9625 268.94 58.2374 268.374 57.7046C267.807 57.1719 267.062 56.8699 266.285 56.8578H261.533C261.163 56.8537 260.796 56.9271 260.457 57.0733C260.117 57.2194 259.811 57.4351 259.56 57.7063C259.309 57.9776 259.117 58.2985 258.997 58.6484C258.877 58.9983 258.832 59.3694 258.864 59.7378L260.352 81.213C260.413 81.9812 260.755 82.6997 261.313 83.2312C261.871 83.7626 262.606 84.0695 263.376 84.093Z" fill="white"/>
<path d="M241.859 145.674C241.802 145.502 241.724 145.348 241.626 145.213C241.529 145.075 241.413 144.958 241.277 144.861C241.143 144.764 240.989 144.692 240.815 144.644C240.641 144.595 240.452 144.57 240.248 144.572C239.881 144.574 239.555 144.665 239.27 144.843C238.985 145.022 238.761 145.283 238.599 145.626C238.439 145.968 238.361 146.383 238.364 146.872C238.368 147.365 238.452 147.782 238.616 148.124C238.781 148.465 239.008 148.724 239.298 148.9C239.588 149.075 239.925 149.161 240.307 149.158C240.653 149.155 240.953 149.09 241.205 148.96C241.46 148.831 241.655 148.649 241.791 148.414C241.928 148.177 241.994 147.9 241.992 147.583L242.273 147.623L240.419 147.636L240.413 146.711L243.183 146.691L243.188 147.476C243.192 148.035 243.071 148.52 242.825 148.93C242.579 149.34 242.239 149.657 241.805 149.881C241.371 150.103 240.872 150.216 240.307 150.22C239.679 150.224 239.126 150.093 238.648 149.826C238.173 149.558 237.8 149.174 237.53 148.676C237.262 148.177 237.126 147.582 237.121 146.893C237.117 146.366 237.192 145.894 237.345 145.479C237.499 145.063 237.717 144.71 237.997 144.419C238.277 144.125 238.607 143.902 238.986 143.748C239.365 143.592 239.777 143.513 240.224 143.51C240.602 143.507 240.954 143.558 241.282 143.662C241.609 143.764 241.9 143.911 242.155 144.102C242.411 144.294 242.623 144.522 242.789 144.787C242.956 145.052 243.065 145.344 243.119 145.665L241.859 145.674Z" fill="#A5BFFC"/>
<path d="M248.659 143.54L249.896 143.532L249.926 147.799C249.929 148.267 249.816 148.679 249.588 149.036C249.361 149.392 249.041 149.672 248.627 149.875C248.213 150.075 247.728 150.178 247.173 150.182C246.615 150.185 246.128 150.09 245.711 149.895C245.294 149.698 244.97 149.423 244.738 149.07C244.507 148.716 244.39 148.305 244.386 147.838L244.357 143.57L245.593 143.562L245.622 147.73C245.624 148.002 245.688 148.244 245.814 148.456C245.942 148.668 246.121 148.833 246.351 148.953C246.58 149.07 246.852 149.128 247.165 149.126C247.478 149.124 247.749 149.062 247.977 148.942C248.207 148.819 248.384 148.651 248.507 148.437C248.63 148.224 248.69 147.981 248.688 147.709L248.659 143.54Z" fill="#A5BFFC"/>
<path d="M252.162 150.048L250.842 150.057L253.2 143.509L254.726 143.498L257.178 150.013L255.858 150.022L253.999 144.843L253.946 144.843L252.162 150.048ZM252.188 147.487L255.787 147.461L255.794 148.412L252.194 148.437L252.188 147.487Z" fill="#A5BFFC"/>
<path d="M258.077 150.007L258.032 143.475L260.591 143.457C261.116 143.453 261.556 143.537 261.913 143.709C262.272 143.881 262.544 144.124 262.728 144.437C262.915 144.748 263.009 145.112 263.012 145.529C263.015 145.948 262.924 146.312 262.74 146.622C262.558 146.929 262.287 147.168 261.928 147.339C261.569 147.507 261.128 147.593 260.604 147.597L258.78 147.61L258.774 146.627L260.43 146.616C260.737 146.614 260.987 146.571 261.182 146.489C261.377 146.405 261.521 146.284 261.613 146.126C261.708 145.966 261.754 145.77 261.752 145.538C261.751 145.306 261.702 145.109 261.605 144.946C261.508 144.781 261.362 144.656 261.166 144.573C260.97 144.487 260.717 144.445 260.408 144.447L259.275 144.455L259.314 149.998L258.077 150.007ZM261.583 147.022L263.293 149.97L261.913 149.98L260.233 147.032L261.583 147.022Z" fill="#A5BFFC"/>
<path d="M265.058 149.958L263.738 149.967L266.096 143.419L267.622 143.408L270.074 149.923L268.754 149.932L266.895 144.753L266.842 144.753L265.058 149.958ZM265.083 147.397L268.683 147.371L268.69 148.322L265.09 148.347L265.083 147.397Z" fill="#A5BFFC"/>
<path d="M276.537 143.346L276.582 149.877L275.483 149.885L272.235 145.458L272.179 145.459L272.21 149.908L270.973 149.917L270.928 143.385L272.034 143.377L275.278 147.807L275.338 147.807L275.307 143.354L276.537 143.346Z" fill="#A5BFFC"/>
<path d="M277.591 144.33L277.584 143.338L283.03 143.3L283.037 144.292L280.927 144.307L280.966 149.847L279.74 149.855L279.701 144.316L277.591 144.33Z" fill="#A5BFFC"/>
<path d="M284.126 149.825L284.08 143.293L288.52 143.262L288.526 144.254L285.324 144.276L285.336 146.05L288.309 146.029L288.316 147.021L285.343 147.041L285.355 148.824L288.585 148.802L288.592 149.794L284.126 149.825Z" fill="#A5BFFC"/>
<path d="M289.827 149.785L289.781 143.253L294.221 143.222L294.227 144.214L291.025 144.236L291.037 146.01L294.01 145.989L294.017 146.981L291.044 147.002L291.056 148.784L294.286 148.762L294.293 149.754L289.827 149.785Z" fill="#A5BFFC"/>
<path d="M297.856 149.729L297.81 143.197L299.047 143.189L299.085 148.728L302.092 148.707L302.099 149.699L297.856 149.729Z" fill="#A5BFFC"/>
<path d="M303.172 149.692L303.126 143.16L307.566 143.129L307.573 144.121L304.37 144.143L304.382 145.917L307.355 145.896L307.362 146.888L304.389 146.908L304.401 148.691L307.631 148.669L307.638 149.661L303.172 149.692Z" fill="#A5BFFC"/>
<path d="M308.534 144.114L308.527 143.122L313.973 143.084L313.98 144.076L311.87 144.091L311.909 149.631L310.683 149.639L310.644 144.1L308.534 144.114Z" fill="#A5BFFC"/>
<path d="M314.73 144.071L314.723 143.079L320.169 143.041L320.176 144.033L318.066 144.048L318.105 149.587L316.878 149.596L316.84 144.056L314.73 144.071Z" fill="#A5BFFC"/>
<path d="M321.265 149.565L321.219 143.034L325.658 143.003L325.665 143.995L322.462 144.017L322.475 145.79L325.448 145.769L325.455 146.761L322.482 146.782L322.494 148.565L325.724 148.542L325.731 149.534L321.265 149.565Z" fill="#A5BFFC"/>
<path d="M326.966 149.526L326.92 142.994L329.48 142.976C330.004 142.972 330.445 143.057 330.801 143.228C331.16 143.4 331.432 143.643 331.616 143.956C331.803 144.268 331.898 144.632 331.901 145.048C331.904 145.467 331.813 145.831 331.628 146.141C331.446 146.448 331.175 146.687 330.817 146.858C330.458 147.026 330.016 147.112 329.492 147.116L327.669 147.129L327.662 146.146L329.318 146.135C329.625 146.133 329.876 146.09 330.071 146.008C330.266 145.924 330.409 145.803 330.502 145.645C330.596 145.485 330.642 145.289 330.641 145.057C330.639 144.825 330.59 144.628 330.493 144.465C330.397 144.3 330.25 144.175 330.054 144.092C329.858 144.006 329.605 143.964 329.297 143.966L328.163 143.974L328.202 149.517L326.966 149.526ZM330.471 146.541L332.182 149.489L330.802 149.499L329.121 146.551L330.471 146.541Z" fill="#A5BFFC"/>
</svg>
